<?xml version="1.0" encoding="iso-8859-1"?>
<!-- Generator: Adobe Illustrator 18.0.0, SVG Export Plug-In . SVG Version: 6.00 Build 0)  -->
<!DOCTYPE svg PUBLIC "-//W3C//DTD SVG 1.1//EN" "http://www.w3.org/Graphics/SVG/1.1/DTD/svg11.dtd">
<svg version="1.1" id="Capa_1" xmlns="http://www.w3.org/2000/svg" xmlns:xlink="http://www.w3.org/1999/xlink" x="0px" y="0px"
	 viewBox="0 0 512 512" style="enable-background:new 0 0 512 512;" xml:space="preserve">
<g>
	<path d="M483.197,294.397l-63.998-47.999c-0.203-0.156-0.438-0.242-0.645-0.391c-0.98-0.703-2.039-1.281-3.098-1.871
		c-0.801-0.445-1.582-0.934-2.406-1.305c-0.977-0.438-2.008-0.742-3.035-1.082c-0.98-0.324-1.949-0.688-2.949-0.914
		c-0.922-0.211-1.875-0.289-2.824-0.414c-1.16-0.156-2.312-0.32-3.476-0.348c-0.262-0.008-0.504-0.074-0.77-0.074H368v-4.559
		c1-0.332,1.194-0.457,1.748-0.824l47.955-31.972c0.02-0.012,0.043-0.027,0.062-0.043c2.398-1.602,4.402-3.543,6.215-5.613
		c0.457-0.523,0.875-1.051,1.301-1.605c1.762-2.301,3.293-4.738,4.359-7.375c0.02-0.047,0.055-0.078,0.074-0.125l31.999-79.998
		c6.562-16.421-1.422-35.03-17.828-41.608c-16.484-6.531-35.046,1.438-41.608,17.828l-28.316,70.787l-12.656,8.44
		c-2.652-1.953-5.762-3.333-9.308-3.333H160.003c-3.547,0-6.656,1.38-9.308,3.333l-12.656-8.439l-28.316-70.788
		c-6.578-16.39-25.156-24.328-41.608-17.828c-16.406,6.578-24.39,25.187-17.828,41.608l31.999,79.998
		c0.02,0.047,0.055,0.078,0.074,0.125c1.066,2.637,2.594,5.07,4.355,7.371c0.426,0.555,0.848,1.086,1.305,1.609
		c1.816,2.07,3.816,4.012,6.215,5.613c0.02,0.016,0.043,0.031,0.063,0.043l47.954,31.972c0.555,0.367,0.748,0.492,1.748,0.824V240
		h-31.996c-0.262,0-0.508,0.066-0.766,0.074c-1.152,0.027-2.289,0.193-3.437,0.342c-0.969,0.129-1.941,0.21-2.879,0.425
		c-0.965,0.219-1.902,0.574-2.852,0.886c-1.063,0.348-2.129,0.664-3.141,1.117c-0.797,0.359-1.551,0.832-2.324,1.262
		c-1.086,0.598-2.164,1.191-3.164,1.906c-0.207,0.148-0.438,0.234-0.641,0.387l-63.998,47.999c-14.14,10.593-17,30.655-6.39,44.796
		c6.281,8.375,15.89,12.797,25.624,12.797c6.672,0,13.406-2.073,19.171-6.401L122.664,304H144v20.435
		c-1,0.336-1.186,0.555-1.748,0.93l-47.998,31.999c-0.25,0.164-0.437,0.387-0.679,0.559c-1.051,0.742-2.019,1.582-2.98,2.453
		c-0.637,0.574-1.285,1.129-1.863,1.746c-0.785,0.832-1.473,1.75-2.168,2.672c-0.586,0.777-1.184,1.535-1.691,2.355
		c-0.539,0.871-0.98,1.801-1.437,2.73c-0.488,0.988-0.969,1.973-1.348,3.004c-0.129,0.34-0.324,0.633-0.441,0.98l-31.999,95.997
		c-5.594,16.765,3.469,34.89,20.234,40.483c3.359,1.125,6.781,1.656,10.125,1.656c13.406,0,25.89-8.484,30.359-21.89l28.53-85.591
		l13.812-9.207c16.937,40.339,56.803,68.674,103.294,68.674s86.357-28.335,103.294-68.674l13.812,9.207l28.53,85.591
		c4.469,13.406,16.953,21.89,30.359,21.89c3.344,0,6.765-0.531,10.125-1.656c16.765-5.594,25.827-23.718,20.234-40.483
		l-31.999-95.997c-0.117-0.348-0.313-0.641-0.441-0.98c-0.383-1.035-0.859-2.019-1.348-3.012c-0.457-0.926-0.898-1.852-1.434-2.719
		c-0.512-0.824-1.113-1.586-1.699-2.367c-0.695-0.922-1.383-1.832-2.164-2.664c-0.578-0.617-1.227-1.172-1.863-1.746
		c-0.961-0.871-1.93-1.711-2.98-2.453c-0.242-0.172-0.43-0.395-0.68-0.559l-47.997-31.999c-0.563-0.375-0.748-0.594-1.748-0.93V304
		h21.336l55.456,41.588c5.765,4.328,12.5,6.404,19.171,6.404c9.734,0,19.343-4.423,25.624-12.798
		C500.197,325.053,497.337,304.99,483.197,294.397z M272,335.989c0,8.836-7.164,16-16,16s-16-7.164-16-16v-95.997
		c0-8.836,7.164-16,16-16s16,7.164,16,16V335.989z"/>
	<path d="M176.002,128h159.996c0-32-11.875-47.384-30.069-62.048l27.382-41.078c4.906-7.359,2.922-17.281-4.437-22.188
		c-7.39-4.891-17.296-2.922-22.187,4.437l-29.401,44.1c-6.82-1.891-13.863-3.227-21.285-3.227s-14.464,1.336-21.285,3.227
		l-29.402-44.1c-4.891-7.359-14.828-9.328-22.187-4.437c-7.359,4.906-9.343,14.828-4.437,22.187l27.382,41.08
		C187.877,80.616,176.002,96,176.002,128z"/>
</g>
<g>
</g>
<g>
</g>
<g>
</g>
<g>
</g>
<g>
</g>
<g>
</g>
<g>
</g>
<g>
</g>
<g>
</g>
<g>
</g>
<g>
</g>
<g>
</g>
<g>
</g>
<g>
</g>
<g>
</g>
</svg>
