<?xml version="1.0" encoding="iso-8859-1"?>
<!-- Generator: Adobe Illustrator 18.0.0, SVG Export Plug-In . SVG Version: 6.00 Build 0)  -->
<!DOCTYPE svg PUBLIC "-//W3C//DTD SVG 1.1//EN" "http://www.w3.org/Graphics/SVG/1.1/DTD/svg11.dtd">
<svg version="1.1" id="Capa_1" xmlns="http://www.w3.org/2000/svg" xmlns:xlink="http://www.w3.org/1999/xlink" x="0px" y="0px"
	 viewBox="0 0 478.694 478.694" style="enable-background:new 0 0 478.694 478.694;" xml:space="preserve">
<g id="XMLID_143_">
	<path id="XMLID_147_" d="M106.986,116.264c21.733,0,39.36-17.611,39.36-39.345c0-21.749-17.626-39.359-39.36-39.359
		c-21.749,0-39.353,17.61-39.353,39.359C67.634,98.653,85.237,116.264,106.986,116.264z"/>
	<path id="XMLID_146_" d="M212.537,73.725l-21.204,28.979l-53.411,21.305c-0.296-0.015-0.545-0.171-0.842-0.171
		c0,0-61.756,0.367-62.551,0.476c-6.935-0.654-13.824,2.898-16.886,9.593L1.523,256.865c-3.857,8.453-0.133,18.444,8.322,22.302
		c8.447,3.856,18.422,0.156,22.302-8.323l27.118-59.409v64.123c0,0.07-0.039,145.379-0.039,145.379
		c0,11.158,9.04,20.197,20.198,20.197s20.199-9.039,20.199-20.197v-120.38h14.728v120.38c0,11.158,9.039,20.197,20.198,20.197
		s20.198-9.039,20.198-20.197l-0.054-267.378l53.605-21.382c2.937-1.17,5.485-3.142,7.348-5.698l15.359-20.992l-13.013-17.783
		C214.875,83.443,213.167,78.617,212.537,73.725z"/>
	<path id="XMLID_145_" d="M371.707,116.264c21.749,0,39.352-17.611,39.352-39.345c0-21.749-17.603-39.359-39.352-39.359
		c-21.733,0-39.36,17.61-39.36,39.359C332.347,98.653,349.974,116.264,371.707,116.264z"/>
	<path id="XMLID_144_" d="M477.171,256.865l-56.122-122.959c-3.063-6.687-9.935-10.247-16.878-9.593
		c-0.803-0.108-63.104-0.319-63.401-0.305l-53.409-21.305l-31.334-42.827c-5.493-7.504-16.021-9.164-23.518-3.647
		c-7.506,5.485-9.142,16.021-3.648,23.518l34.187,46.731c1.862,2.557,4.411,4.528,7.349,5.698l53.605,21.382
		c0,24.258-0.048,238.352-0.056,267.378c0,11.158,9.041,20.197,20.2,20.197s20.198-9.039,20.198-20.197v-120.38h14.729v120.38
		c0,11.158,9.039,20.197,20.198,20.197c11.159,0,20.198-9.039,20.198-20.197l-0.038-209.502l27.118,59.409
		c3.879,8.479,13.854,12.18,22.301,8.323C477.304,275.31,481.029,265.319,477.171,256.865z"/>
</g>
<g>
</g>
<g>
</g>
<g>
</g>
<g>
</g>
<g>
</g>
<g>
</g>
<g>
</g>
<g>
</g>
<g>
</g>
<g>
</g>
<g>
</g>
<g>
</g>
<g>
</g>
<g>
</g>
<g>
</g>
</svg>
