<?xml version="1.0" encoding="iso-8859-1"?>
<!-- Generator: Adobe Illustrator 16.0.0, SVG Export Plug-In . SVG Version: 6.00 Build 0)  -->
<!DOCTYPE svg PUBLIC "-//W3C//DTD SVG 1.1//EN" "http://www.w3.org/Graphics/SVG/1.1/DTD/svg11.dtd">
<svg version="1.1" id="Capa_1" xmlns="http://www.w3.org/2000/svg" xmlns:xlink="http://www.w3.org/1999/xlink" x="0px" y="0px"
	 width="30.238px" height="30.238px" viewBox="0 0 30.238 30.238" style="enable-background:new 0 0 30.238 30.238;"
	 xml:space="preserve">
<g>
	<path d="M29.504,25.972l-6.718-6.719c-0.354-0.355-0.793-0.578-1.252-0.675c1.896-2.725,2.506-6.068,1.851-9.2l-2.74,2.688
		c-0.059,2.182-0.909,4.347-2.57,6.008c-3.444,3.443-9.048,3.443-12.492,0c-3.444-3.444-3.444-9.048,0-12.492
		c3.444-3.443,9.048-3.443,12.492,0c0.49,0.49,0.902,1.027,1.252,1.593l-6.343,6.222L7.856,8.484
		C7.258,7.91,6.309,7.931,5.735,8.529C5.162,9.127,5.182,10.077,5.78,10.65l6.177,5.918c0.29,0.277,0.664,0.416,1.038,0.416
		c0.379,0,0.759-0.143,1.05-0.428L26.367,4.471c0.591-0.58,0.602-1.53,0.021-2.121s-1.528-0.602-2.121-0.021l-2.762,2.709
		c-0.386-0.553-0.816-1.084-1.31-1.577c-4.614-4.613-12.121-4.613-16.734,0c-4.613,4.614-4.614,12.121,0,16.734
		c4.108,4.107,10.505,4.547,15.116,1.34c0.098,0.459,0.318,0.896,0.676,1.253l6.717,6.717c0.979,0.979,2.561,0.979,3.537,0
		C30.48,28.529,30.48,26.947,29.504,25.972z"/>
</g>
<g>
</g>
<g>
</g>
<g>
</g>
<g>
</g>
<g>
</g>
<g>
</g>
<g>
</g>
<g>
</g>
<g>
</g>
<g>
</g>
<g>
</g>
<g>
</g>
<g>
</g>
<g>
</g>
<g>
</g>
</svg>
