<?xml version="1.0" encoding="utf-8"?>
<!-- Generator: Adobe Illustrator 17.0.0, SVG Export Plug-In . SVG Version: 6.00 Build 0)  -->
<!DOCTYPE svg PUBLIC "-//W3C//DTD SVG 1.1//EN" "http://www.w3.org/Graphics/SVG/1.1/DTD/svg11.dtd">
<svg version="1.1" id="Layer_1" xmlns="http://www.w3.org/2000/svg" xmlns:xlink="http://www.w3.org/1999/xlink" x="0px" y="0px"
	 width="348px" height="320px" viewBox="0 0 348 320" enable-background="new 0 0 348 320" xml:space="preserve">
<rect x="-41" y="-30" fill="#FFFFFF" width="430" height="374"/>
<g>
	<line fill="none" x1="-5" y1="12.167" x2="355" y2="12.167"/>
	<path fill="#747474" d="M6.415,6.49h-0.02L5.266,7.099L5.096,6.43l1.419-0.76h0.75v6.497H6.415V6.49z"/>
	<path fill="#747474" d="M9.646,12.167v-0.54l0.689-0.67c1.659-1.579,2.409-2.418,2.419-3.398c0-0.66-0.32-1.27-1.29-1.27
		c-0.589,0-1.079,0.3-1.379,0.55l-0.28-0.62c0.45-0.38,1.089-0.66,1.839-0.66c1.399,0,1.989,0.959,1.989,1.889
		c0,1.199-0.87,2.168-2.239,3.488l-0.52,0.48v0.02h2.918v0.729H9.646z"/>
	<path fill="#747474" d="M18.286,10.048l-0.7,2.119h-0.899l2.289-6.736h1.049l2.299,6.736h-0.93l-0.719-2.119H18.286z M20.494,9.368
		l-0.66-1.939c-0.15-0.44-0.25-0.84-0.35-1.229h-0.02c-0.1,0.4-0.21,0.81-0.34,1.219l-0.66,1.949H20.494z"/>
	<path fill="#747474" d="M23.268,8.908c0-0.62-0.02-1.119-0.04-1.579h0.79l0.04,0.83h0.02c0.36-0.59,0.93-0.939,1.719-0.939
		c1.169,0,2.049,0.989,2.049,2.458c0,1.739-1.06,2.599-2.199,2.599c-0.64,0-1.199-0.28-1.489-0.759h-0.02v2.628h-0.87V8.908z
		 M24.138,10.198c0,0.13,0.02,0.25,0.04,0.36c0.16,0.609,0.689,1.029,1.319,1.029c0.929,0,1.469-0.76,1.469-1.869
		c0-0.969-0.51-1.799-1.439-1.799c-0.6,0-1.159,0.43-1.329,1.089c-0.03,0.11-0.06,0.24-0.06,0.36V10.198z"/>
	<path fill="#747474" d="M28.96,8.838c0-0.57-0.01-1.06-0.04-1.509h0.77l0.03,0.95h0.04c0.22-0.65,0.75-1.06,1.339-1.06
		c0.1,0,0.17,0.01,0.25,0.03v0.83c-0.09-0.02-0.18-0.03-0.3-0.03c-0.62,0-1.059,0.47-1.179,1.129c-0.02,0.12-0.04,0.26-0.04,0.41
		v2.579h-0.87V8.838z"/>
</g>
<g>
	<line fill="none" x1="29.5" y1="12.167" x2="389.5" y2="12.167"/>
	<path fill="#747474" d="M40.915,6.49h-0.02l-1.129,0.609l-0.17-0.669l1.419-0.76h0.75v6.497h-0.849V6.49z"/>
	<path fill="#747474" d="M44.355,11.157c0.25,0.16,0.83,0.41,1.439,0.41c1.129,0,1.479-0.72,1.469-1.259
		c-0.01-0.91-0.83-1.299-1.679-1.299h-0.49v-0.66h0.49c0.64,0,1.449-0.33,1.449-1.1c0-0.52-0.33-0.979-1.14-0.979
		c-0.52,0-1.02,0.23-1.299,0.43l-0.23-0.64c0.34-0.25,1-0.5,1.699-0.5c1.279,0,1.859,0.76,1.859,1.549
		c0,0.669-0.399,1.239-1.199,1.529v0.02c0.8,0.16,1.449,0.76,1.449,1.669c0,1.039-0.81,1.949-2.369,1.949
		c-0.729,0-1.369-0.23-1.689-0.439L44.355,11.157z"/>
	<path fill="#747474" d="M52.786,10.048l-0.7,2.119h-0.899l2.289-6.736h1.049l2.299,6.736h-0.93l-0.719-2.119H52.786z M54.994,9.368
		l-0.66-1.939c-0.15-0.44-0.25-0.84-0.35-1.229h-0.02c-0.1,0.4-0.21,0.81-0.34,1.219l-0.66,1.949H54.994z"/>
	<path fill="#747474" d="M57.768,8.908c0-0.62-0.02-1.119-0.04-1.579h0.79l0.04,0.83h0.02c0.36-0.59,0.93-0.939,1.719-0.939
		c1.169,0,2.049,0.989,2.049,2.458c0,1.739-1.06,2.599-2.199,2.599c-0.64,0-1.199-0.28-1.489-0.759h-0.02v2.628h-0.87V8.908z
		 M58.638,10.198c0,0.13,0.02,0.25,0.04,0.36c0.16,0.609,0.689,1.029,1.319,1.029c0.929,0,1.469-0.76,1.469-1.869
		c0-0.969-0.51-1.799-1.439-1.799c-0.6,0-1.159,0.43-1.329,1.089c-0.03,0.11-0.06,0.24-0.06,0.36V10.198z"/>
	<path fill="#747474" d="M63.46,8.838c0-0.57-0.01-1.06-0.04-1.509h0.77l0.03,0.95h0.04c0.22-0.65,0.75-1.06,1.339-1.06
		c0.1,0,0.17,0.01,0.25,0.03v0.83c-0.09-0.02-0.18-0.03-0.3-0.03c-0.62,0-1.059,0.47-1.179,1.129c-0.02,0.12-0.04,0.26-0.04,0.41
		v2.579h-0.87V8.838z"/>
</g>
<g>
	<line fill="none" x1="66.5" y1="12.167" x2="426.5" y2="12.167"/>
	<path fill="#747474" d="M77.915,6.49h-0.02l-1.129,0.609l-0.17-0.669l1.419-0.76h0.75v6.497h-0.849V6.49z"/>
	<path fill="#747474" d="M83.864,12.167v-1.769h-3.019v-0.58l2.898-4.148h0.949v4.038h0.91v0.689h-0.91v1.769H83.864z M83.864,9.708
		V7.539c0-0.34,0.01-0.68,0.03-1.02h-0.03c-0.2,0.38-0.36,0.66-0.54,0.959l-1.589,2.209v0.02H83.864z"/>
	<path fill="#747474" d="M89.786,10.048l-0.7,2.119h-0.899l2.289-6.736h1.049l2.299,6.736h-0.93l-0.719-2.119H89.786z M91.994,9.368
		l-0.66-1.939c-0.15-0.44-0.25-0.84-0.35-1.229h-0.02c-0.1,0.4-0.21,0.81-0.34,1.219l-0.66,1.949H91.994z"/>
	<path fill="#747474" d="M94.768,8.908c0-0.62-0.02-1.119-0.04-1.579h0.79l0.04,0.83h0.02c0.36-0.59,0.93-0.939,1.719-0.939
		c1.169,0,2.049,0.989,2.049,2.458c0,1.739-1.06,2.599-2.199,2.599c-0.64,0-1.199-0.28-1.489-0.759h-0.02v2.628h-0.87V8.908z
		 M95.638,10.198c0,0.13,0.02,0.25,0.04,0.36c0.16,0.609,0.689,1.029,1.319,1.029c0.929,0,1.469-0.76,1.469-1.869
		c0-0.969-0.51-1.799-1.439-1.799c-0.6,0-1.159,0.43-1.329,1.089c-0.03,0.11-0.06,0.24-0.06,0.36V10.198z"/>
	<path fill="#747474" d="M100.46,8.838c0-0.57-0.01-1.06-0.04-1.509h0.77l0.03,0.95h0.04c0.22-0.65,0.75-1.06,1.339-1.06
		c0.1,0,0.17,0.01,0.25,0.03v0.83c-0.09-0.02-0.18-0.03-0.3-0.03c-0.62,0-1.059,0.47-1.179,1.129c-0.02,0.12-0.04,0.26-0.04,0.41
		v2.579h-0.87V8.838z"/>
</g>
<g>
	<line fill="none" x1="102" y1="12.167" x2="462" y2="12.167"/>
	<path fill="#747474" d="M113.415,6.49h-0.02l-1.129,0.609l-0.17-0.669l1.419-0.76h0.75v6.497h-0.849V6.49z"/>
	<path fill="#747474" d="M120.523,6.41h-2.479l-0.25,1.669c0.15-0.02,0.29-0.04,0.53-0.04c0.5,0,1,0.11,1.399,0.35
		c0.51,0.29,0.93,0.85,0.93,1.669c0,1.27-1.009,2.219-2.418,2.219c-0.71,0-1.31-0.2-1.619-0.4l0.22-0.669
		c0.27,0.16,0.799,0.36,1.389,0.36c0.83,0,1.539-0.54,1.539-1.409c-0.01-0.84-0.569-1.439-1.869-1.439c-0.37,0-0.66,0.04-0.9,0.07
		l0.42-3.119h3.108V6.41z"/>
	<path fill="#747474" d="M125.286,10.048l-0.7,2.119h-0.899l2.289-6.736h1.049l2.299,6.736h-0.93l-0.719-2.119H125.286z
		 M127.494,9.368l-0.66-1.939c-0.15-0.44-0.25-0.84-0.35-1.229h-0.02c-0.1,0.4-0.21,0.81-0.34,1.219l-0.66,1.949H127.494z"/>
	<path fill="#747474" d="M130.268,8.908c0-0.62-0.02-1.119-0.04-1.579h0.79l0.04,0.83h0.02c0.36-0.59,0.93-0.939,1.719-0.939
		c1.169,0,2.049,0.989,2.049,2.458c0,1.739-1.06,2.599-2.199,2.599c-0.64,0-1.199-0.28-1.489-0.759h-0.02v2.628h-0.87V8.908z
		 M131.138,10.198c0,0.13,0.02,0.25,0.04,0.36c0.16,0.609,0.689,1.029,1.319,1.029c0.929,0,1.469-0.76,1.469-1.869
		c0-0.969-0.51-1.799-1.439-1.799c-0.6,0-1.159,0.43-1.329,1.089c-0.03,0.11-0.06,0.24-0.06,0.36V10.198z"/>
	<path fill="#747474" d="M135.96,8.838c0-0.57-0.01-1.06-0.04-1.509h0.77l0.03,0.95h0.04c0.22-0.65,0.75-1.06,1.339-1.06
		c0.1,0,0.17,0.01,0.25,0.03v0.83c-0.09-0.02-0.18-0.03-0.3-0.03c-0.62,0-1.059,0.47-1.179,1.129c-0.02,0.12-0.04,0.26-0.04,0.41
		v2.579h-0.87V8.838z"/>
</g>
<g>
	<line fill="none" x1="138.5" y1="12.167" x2="498.5" y2="12.167"/>
	<path fill="#747474" d="M149.915,6.49h-0.02l-1.129,0.609l-0.17-0.669l1.419-0.76h0.75v6.497h-0.849V6.49z"/>
	<path fill="#747474" d="M156.854,6.29c-0.18-0.01-0.41,0-0.66,0.04c-1.379,0.23-2.109,1.239-2.259,2.309h0.03
		c0.31-0.41,0.849-0.75,1.569-0.75c1.149,0,1.959,0.83,1.959,2.099c0,1.189-0.81,2.289-2.159,2.289
		c-1.389,0-2.299-1.079-2.299-2.769c0-1.279,0.459-2.289,1.099-2.928c0.54-0.53,1.26-0.859,2.079-0.959
		c0.26-0.04,0.479-0.05,0.64-0.05V6.29z M156.604,10.038c0-0.929-0.53-1.489-1.339-1.489c-0.529,0-1.019,0.33-1.259,0.8
		c-0.06,0.1-0.1,0.23-0.1,0.39c0.02,1.069,0.51,1.859,1.429,1.859C156.094,11.597,156.604,10.967,156.604,10.038z"/>
	<path fill="#747474" d="M161.786,10.048l-0.7,2.119h-0.899l2.289-6.736h1.049l2.299,6.736h-0.93l-0.719-2.119H161.786z
		 M163.994,9.368l-0.66-1.939c-0.15-0.44-0.25-0.84-0.35-1.229h-0.02c-0.1,0.4-0.21,0.81-0.34,1.219l-0.66,1.949H163.994z"/>
	<path fill="#747474" d="M166.768,8.908c0-0.62-0.02-1.119-0.04-1.579h0.79l0.04,0.83h0.02c0.36-0.59,0.93-0.939,1.719-0.939
		c1.169,0,2.049,0.989,2.049,2.458c0,1.739-1.06,2.599-2.199,2.599c-0.64,0-1.199-0.28-1.489-0.759h-0.02v2.628h-0.87V8.908z
		 M167.638,10.198c0,0.13,0.02,0.25,0.04,0.36c0.16,0.609,0.689,1.029,1.319,1.029c0.929,0,1.469-0.76,1.469-1.869
		c0-0.969-0.51-1.799-1.439-1.799c-0.6,0-1.159,0.43-1.329,1.089c-0.03,0.11-0.06,0.24-0.06,0.36V10.198z"/>
	<path fill="#747474" d="M172.46,8.838c0-0.57-0.01-1.06-0.04-1.509h0.77l0.03,0.95h0.04c0.22-0.65,0.75-1.06,1.339-1.06
		c0.1,0,0.17,0.01,0.25,0.03v0.83c-0.09-0.02-0.18-0.03-0.3-0.03c-0.62,0-1.059,0.47-1.179,1.129c-0.02,0.12-0.04,0.26-0.04,0.41
		v2.579h-0.87V8.838z"/>
</g>
<g>
	<line fill="none" x1="175" y1="12.167" x2="535" y2="12.167"/>
	<path fill="#747474" d="M186.415,6.49h-0.021l-1.129,0.609l-0.17-0.669l1.419-0.76h0.749v6.497h-0.849V6.49z"/>
	<path fill="#747474" d="M193.863,5.67v0.58l-2.828,5.917h-0.91l2.818-5.747V6.4h-3.178V5.67H193.863z"/>
	<path fill="#747474" d="M198.285,10.048l-0.699,2.119h-0.899l2.288-6.736h1.05l2.299,6.736h-0.93l-0.72-2.119H198.285z
		 M200.494,9.368l-0.66-1.939c-0.149-0.44-0.249-0.84-0.35-1.229h-0.02c-0.1,0.4-0.21,0.81-0.34,1.219l-0.66,1.949H200.494z"/>
	<path fill="#747474" d="M203.268,8.908c0-0.62-0.02-1.119-0.039-1.579h0.789l0.04,0.83h0.021c0.359-0.59,0.93-0.939,1.719-0.939
		c1.17,0,2.049,0.989,2.049,2.458c0,1.739-1.06,2.599-2.199,2.599c-0.639,0-1.199-0.28-1.488-0.759h-0.021v2.628h-0.87V8.908z
		 M204.138,10.198c0,0.13,0.021,0.25,0.04,0.36c0.16,0.609,0.689,1.029,1.319,1.029c0.929,0,1.47-0.76,1.47-1.869
		c0-0.969-0.51-1.799-1.439-1.799c-0.6,0-1.16,0.43-1.33,1.089c-0.029,0.11-0.06,0.24-0.06,0.36V10.198z"/>
	<path fill="#747474" d="M208.961,8.838c0-0.57-0.01-1.06-0.041-1.509h0.77l0.031,0.95h0.039c0.221-0.65,0.75-1.06,1.34-1.06
		c0.1,0,0.17,0.01,0.25,0.03v0.83c-0.09-0.02-0.18-0.03-0.301-0.03c-0.619,0-1.059,0.47-1.179,1.129
		c-0.021,0.12-0.04,0.26-0.04,0.41v2.579h-0.869V8.838z"/>
</g>
<g>
	<line fill="none" x1="211.5" y1="12.167" x2="571.5" y2="12.167"/>
	<path fill="#747474" d="M222.915,6.49h-0.021l-1.129,0.609l-0.17-0.669l1.419-0.76h0.749v6.497h-0.849V6.49z"/>
	<path fill="#747474" d="M226.065,10.518c0-0.82,0.489-1.399,1.29-1.739l-0.011-0.03c-0.72-0.34-1.029-0.899-1.029-1.459
		c0-1.029,0.87-1.729,2.009-1.729c1.26,0,1.889,0.79,1.889,1.599c0,0.55-0.27,1.14-1.068,1.519v0.03
		c0.809,0.32,1.309,0.89,1.309,1.679c0,1.129-0.969,1.889-2.209,1.889C226.885,12.276,226.065,11.467,226.065,10.518z
		 M229.563,10.478c0-0.79-0.55-1.169-1.429-1.419c-0.76,0.22-1.17,0.72-1.17,1.339c-0.029,0.66,0.471,1.239,1.299,1.239
		C229.054,11.637,229.563,11.147,229.563,10.478z M227.145,7.229c0,0.65,0.49,1,1.24,1.2c0.559-0.19,0.989-0.59,0.989-1.18
		c0-0.52-0.31-1.059-1.1-1.059C227.545,6.19,227.145,6.669,227.145,7.229z"/>
	<path fill="#747474" d="M234.785,10.048l-0.699,2.119h-0.899l2.288-6.736h1.05l2.299,6.736h-0.93l-0.72-2.119H234.785z
		 M236.994,9.368l-0.66-1.939c-0.149-0.44-0.249-0.84-0.35-1.229h-0.02c-0.1,0.4-0.21,0.81-0.34,1.219l-0.66,1.949H236.994z"/>
	<path fill="#747474" d="M239.768,8.908c0-0.62-0.02-1.119-0.039-1.579h0.789l0.04,0.83h0.021c0.359-0.59,0.93-0.939,1.719-0.939
		c1.17,0,2.049,0.989,2.049,2.458c0,1.739-1.06,2.599-2.199,2.599c-0.639,0-1.199-0.28-1.488-0.759h-0.021v2.628h-0.87V8.908z
		 M240.638,10.198c0,0.13,0.021,0.25,0.04,0.36c0.16,0.609,0.689,1.029,1.319,1.029c0.929,0,1.47-0.76,1.47-1.869
		c0-0.969-0.51-1.799-1.439-1.799c-0.6,0-1.16,0.43-1.33,1.089c-0.029,0.11-0.06,0.24-0.06,0.36V10.198z"/>
	<path fill="#747474" d="M245.461,8.838c0-0.57-0.01-1.06-0.041-1.509h0.77l0.031,0.95h0.039c0.221-0.65,0.75-1.06,1.34-1.06
		c0.1,0,0.17,0.01,0.25,0.03v0.83c-0.09-0.02-0.18-0.03-0.301-0.03c-0.619,0-1.059,0.47-1.179,1.129
		c-0.021,0.12-0.04,0.26-0.04,0.41v2.579h-0.869V8.838z"/>
</g>
<g>
	<line fill="none" x1="246.5" y1="12.167" x2="606.5" y2="12.167"/>
	<path fill="#747474" d="M257.915,6.49h-0.021l-1.129,0.609l-0.17-0.669l1.419-0.76h0.749v6.497h-0.849V6.49z"/>
	<path fill="#747474" d="M261.655,11.547c0.19,0.02,0.409,0,0.71-0.03c0.51-0.07,0.989-0.28,1.359-0.63
		c0.43-0.39,0.739-0.959,0.859-1.729h-0.03c-0.36,0.44-0.88,0.7-1.529,0.7c-1.169,0-1.919-0.88-1.919-1.989
		c0-1.229,0.89-2.309,2.219-2.309c1.33,0,2.148,1.08,2.148,2.739c0,1.429-0.479,2.428-1.119,3.048c-0.5,0.49-1.189,0.79-1.889,0.869
		c-0.32,0.05-0.6,0.06-0.81,0.05V11.547z M261.975,7.809c0,0.81,0.49,1.379,1.25,1.379c0.59,0,1.049-0.29,1.279-0.68
		c0.05-0.08,0.08-0.18,0.08-0.32c0-1.109-0.41-1.958-1.33-1.958C262.505,6.23,261.975,6.889,261.975,7.809z"/>
	<path fill="#747474" d="M269.785,10.048l-0.699,2.119h-0.899l2.288-6.736h1.05l2.299,6.736h-0.93l-0.72-2.119H269.785z
		 M271.994,9.368l-0.66-1.939c-0.149-0.44-0.249-0.84-0.35-1.229h-0.02c-0.1,0.4-0.21,0.81-0.34,1.219l-0.66,1.949H271.994z"/>
	<path fill="#747474" d="M274.768,8.908c0-0.62-0.02-1.119-0.039-1.579h0.789l0.04,0.83h0.021c0.359-0.59,0.93-0.939,1.719-0.939
		c1.17,0,2.049,0.989,2.049,2.458c0,1.739-1.06,2.599-2.199,2.599c-0.639,0-1.199-0.28-1.488-0.759h-0.021v2.628h-0.87V8.908z
		 M275.638,10.198c0,0.13,0.021,0.25,0.04,0.36c0.16,0.609,0.689,1.029,1.319,1.029c0.929,0,1.47-0.76,1.47-1.869
		c0-0.969-0.51-1.799-1.439-1.799c-0.6,0-1.16,0.43-1.33,1.089c-0.029,0.11-0.06,0.24-0.06,0.36V10.198z"/>
	<path fill="#747474" d="M280.461,8.838c0-0.57-0.01-1.06-0.041-1.509h0.77l0.031,0.95h0.039c0.221-0.65,0.75-1.06,1.34-1.06
		c0.1,0,0.17,0.01,0.25,0.03v0.83c-0.09-0.02-0.18-0.03-0.301-0.03c-0.619,0-1.059,0.47-1.179,1.129
		c-0.021,0.12-0.04,0.26-0.04,0.41v2.579h-0.869V8.838z"/>
</g>
<g>
	<line fill="none" x1="284" y1="12.167" x2="644" y2="12.167"/>
	<path fill="#747474" d="M293.506,12.167v-0.54l0.689-0.67c1.659-1.579,2.408-2.418,2.419-3.398c0-0.66-0.319-1.27-1.29-1.27
		c-0.589,0-1.078,0.3-1.379,0.55l-0.279-0.62c0.449-0.38,1.09-0.66,1.839-0.66c1.399,0,1.989,0.959,1.989,1.889
		c0,1.199-0.87,2.168-2.239,3.488l-0.52,0.48v0.02h2.919v0.729H293.506z"/>
	<path fill="#747474" d="M302.963,8.848c0,2.209-0.819,3.428-2.258,3.428c-1.27,0-2.129-1.189-2.149-3.338
		c0-2.179,0.939-3.378,2.259-3.378C302.184,5.56,302.963,6.779,302.963,8.848z M299.436,8.948c0,1.689,0.52,2.648,1.318,2.648
		c0.9,0,1.33-1.049,1.33-2.708c0-1.599-0.41-2.648-1.32-2.648C299.994,6.24,299.436,7.179,299.436,8.948z"/>
	<path fill="#747474" d="M307.285,10.048l-0.699,2.119h-0.899l2.288-6.736h1.05l2.299,6.736h-0.93l-0.72-2.119H307.285z
		 M309.494,9.368l-0.66-1.939c-0.149-0.44-0.249-0.84-0.35-1.229h-0.02c-0.1,0.4-0.21,0.81-0.34,1.219l-0.66,1.949H309.494z"/>
	<path fill="#747474" d="M312.268,8.908c0-0.62-0.02-1.119-0.039-1.579h0.789l0.04,0.83h0.021c0.359-0.59,0.93-0.939,1.719-0.939
		c1.17,0,2.049,0.989,2.049,2.458c0,1.739-1.06,2.599-2.199,2.599c-0.639,0-1.199-0.28-1.488-0.759h-0.021v2.628h-0.87V8.908z
		 M313.138,10.198c0,0.13,0.021,0.25,0.04,0.36c0.16,0.609,0.689,1.029,1.319,1.029c0.929,0,1.47-0.76,1.47-1.869
		c0-0.969-0.51-1.799-1.439-1.799c-0.6,0-1.16,0.43-1.33,1.089c-0.029,0.11-0.06,0.24-0.06,0.36V10.198z"/>
	<path fill="#747474" d="M317.961,8.838c0-0.57-0.01-1.06-0.041-1.509h0.77l0.031,0.95h0.039c0.221-0.65,0.75-1.06,1.34-1.06
		c0.1,0,0.17,0.01,0.25,0.03v0.83c-0.09-0.02-0.18-0.03-0.301-0.03c-0.619,0-1.059,0.47-1.179,1.129
		c-0.021,0.12-0.04,0.26-0.04,0.41v2.579h-0.869V8.838z"/>
</g>
<line fill="none" stroke="#DDDDDD" stroke-miterlimit="10" x1="2" y1="17.5" x2="362" y2="17.5"/>
<line fill="none" stroke="#DDDDDD" stroke-miterlimit="10" x1="-6" y1="35.5" x2="354" y2="35.5"/>
<line fill="none" stroke="#DDDDDD" stroke-miterlimit="10" x1="0" y1="72.5" x2="360" y2="72.5"/>
<line fill="none" stroke="#DDDDDD" stroke-miterlimit="10" x1="1" y1="90.5" x2="361" y2="90.5"/>
<line fill="none" stroke="#DDDDDD" stroke-miterlimit="10" x1="1" y1="107.5" x2="361" y2="107.5"/>
<line fill="none" stroke="#DDDDDD" stroke-miterlimit="10" x1="1" y1="125.5" x2="361" y2="125.5"/>
<line fill="none" stroke="#DDDDDD" stroke-miterlimit="10" x1="1" y1="144.5" x2="361" y2="144.5"/>
<line fill="none" stroke="#DDDDDD" stroke-miterlimit="10" x1="1" y1="162.5" x2="361" y2="162.5"/>
<line fill="none" stroke="#DDDDDD" stroke-miterlimit="10" x1="3" y1="180.5" x2="363" y2="180.5"/>
<line fill="none" stroke="#DDDDDD" stroke-miterlimit="10" x1="3" y1="198.5" x2="363" y2="198.5"/>
<line fill="none" stroke="#DDDDDD" stroke-miterlimit="10" x1="3" y1="216.5" x2="363" y2="216.5"/>
<line fill="none" stroke="#DDDDDD" stroke-miterlimit="10" x1="1" y1="234.5" x2="361" y2="234.5"/>
<line fill="none" stroke="#DDDDDD" stroke-miterlimit="10" x1="2" y1="270.5" x2="362" y2="270.5"/>
<line fill="none" stroke="#DDDDDD" stroke-miterlimit="10" x1="1" y1="251.5" x2="361" y2="251.5"/>
<line fill="none" stroke="#DDDDDD" stroke-miterlimit="10" x1="2" y1="288.5" x2="362" y2="288.5"/>
<line fill="none" stroke="#DDDDDD" stroke-miterlimit="10" x1="3" y1="306.5" x2="363" y2="306.5"/>
<line fill="none" stroke="#DDDDDD" stroke-miterlimit="10" x1="1" y1="319.5" x2="361" y2="319.5"/>
<line fill="none" stroke="#DDDDDD" stroke-miterlimit="10" x1="-1" y1="0.5" x2="359" y2="0.5"/>
<line fill="none" stroke="#DDDDDD" stroke-miterlimit="10" x1="35.5" y1="360" x2="35.5" y2="0"/>
<line fill="none" stroke="#DDDDDD" stroke-miterlimit="10" x1="0.5" y1="361" x2="0.5" y2="1"/>
<line fill="none" stroke="#DDDDDD" stroke-miterlimit="10" x1="347.5" y1="358" x2="347.5" y2="-2"/>
<line fill="none" stroke="#DDDDDD" stroke-miterlimit="10" x1="71.5" y1="361" x2="71.5" y2="1"/>
<line fill="none" stroke="#DDDDDD" stroke-miterlimit="10" x1="107.5" y1="360" x2="107.5" y2="0"/>
<line fill="none" stroke="#DDDDDD" stroke-miterlimit="10" x1="144.5" y1="361" x2="144.5" y2="1"/>
<line fill="none" stroke="#DDDDDD" stroke-miterlimit="10" x1="324.5" y1="361" x2="324.5" y2="1"/>
<line fill="none" stroke="#DDDDDD" stroke-miterlimit="10" x1="179.5" y1="361" x2="179.5" y2="1"/>
<line fill="none" stroke="#DDDDDD" stroke-miterlimit="10" x1="215.5" y1="362" x2="215.5" y2="2"/>
<line fill="none" stroke="#DDDDDD" stroke-miterlimit="10" x1="251.5" y1="360" x2="251.5" y2="0"/>
<line fill="none" stroke="#DDDDDD" stroke-miterlimit="10" x1="287.5" y1="361" x2="287.5" y2="1"/>
<line fill="none" stroke="#DDDDDD" stroke-miterlimit="10" x1="-5" y1="53.5" x2="355" y2="53.5"/>
<rect x="-4" y="19" fill="#53A560" width="148" height="15"/>
<rect x="36" y="37" fill="#548FA3" width="251" height="15"/>
<rect x="72" y="55" fill="#548FA3" width="143" height="15"/>
<rect x="72" y="74" fill="#E59D3E" width="108" height="15"/>
<rect x="108" y="91" fill="#53A560" width="216" height="15"/>
<rect x="108" y="108" fill="#548FA3" width="179" height="15"/>
<rect x="179" y="127" fill="#E59D3E" width="72" height="15"/>
<rect x="179" y="146" fill="#E59D3E" width="72" height="15"/>
<rect x="179" y="164" fill="#E59D3E" width="108" height="15"/>
<rect x="215" y="182" fill="#548FA3" width="109" height="15"/>
<rect x="251" y="200" fill="#548FA3" width="148" height="15"/>
<g>
	<path fill="#FFFFFF" d="M181.76,130.844c0.42-0.07,0.969-0.13,1.669-0.13c0.859,0,1.489,0.2,1.889,0.56
		c0.37,0.32,0.59,0.81,0.59,1.409c0,0.61-0.18,1.089-0.52,1.439c-0.46,0.49-1.21,0.739-2.06,0.739c-0.26,0-0.499-0.01-0.699-0.06
		v2.699h-0.869V130.844z M182.629,134.092c0.189,0.05,0.43,0.07,0.72,0.07c1.05,0,1.688-0.509,1.688-1.439
		c0-0.89-0.629-1.319-1.588-1.319c-0.381,0-0.67,0.03-0.82,0.07V134.092z"/>
	<path fill="#FFFFFF" d="M186.89,134.172c0-0.57-0.01-1.06-0.04-1.509h0.77l0.03,0.95h0.04c0.22-0.65,0.75-1.06,1.34-1.06
		c0.1,0,0.169,0.01,0.249,0.03v0.83c-0.09-0.02-0.18-0.03-0.3-0.03c-0.619,0-1.06,0.47-1.18,1.129c-0.02,0.12-0.039,0.26-0.039,0.41
		v2.579h-0.87V134.172z"/>
	<path fill="#FFFFFF" d="M194.438,135.042c0,1.789-1.24,2.568-2.408,2.568c-1.311,0-2.319-0.959-2.319-2.489
		c0-1.619,1.06-2.568,2.398-2.568C193.498,132.553,194.438,133.562,194.438,135.042z M190.6,135.091c0,1.06,0.609,1.859,1.469,1.859
		c0.84,0,1.469-0.79,1.469-1.879c0-0.819-0.409-1.859-1.449-1.859C191.049,133.212,190.6,134.172,190.6,135.091z"/>
	<path fill="#FFFFFF" d="M194.37,138.899c0.399-0.03,0.749-0.14,0.96-0.37c0.239-0.28,0.329-0.66,0.329-1.819v-4.048h0.88v4.388
		c0,0.939-0.15,1.549-0.58,1.989c-0.39,0.39-1.029,0.55-1.499,0.55L194.37,138.899z M196.639,131.303
		c0.01,0.29-0.199,0.54-0.549,0.54c-0.33,0-0.541-0.25-0.541-0.54c0-0.31,0.23-0.549,0.561-0.549
		C196.429,130.754,196.639,130.994,196.639,131.303z"/>
	<path fill="#FFFFFF" d="M198.469,135.241c0.021,1.189,0.78,1.679,1.66,1.679c0.629,0,1.009-0.11,1.339-0.25l0.149,0.63
		c-0.31,0.14-0.84,0.3-1.609,0.3c-1.488,0-2.378-0.979-2.378-2.439c0-1.459,0.859-2.608,2.269-2.608
		c1.579,0,1.999,1.389,1.999,2.279c0,0.18-0.021,0.32-0.03,0.41H198.469z M201.048,134.612c0.011-0.56-0.229-1.429-1.22-1.429
		c-0.889,0-1.279,0.819-1.349,1.429H201.048z"/>
	<path fill="#FFFFFF" d="M206.438,137.32c-0.23,0.12-0.74,0.28-1.389,0.28c-1.46,0-2.409-0.99-2.409-2.469
		c0-1.489,1.02-2.569,2.599-2.569c0.52,0,0.979,0.13,1.219,0.25l-0.199,0.68c-0.21-0.12-0.54-0.23-1.02-0.23
		c-1.109,0-1.709,0.82-1.709,1.829c0,1.12,0.719,1.809,1.679,1.809c0.5,0,0.829-0.13,1.079-0.24L206.438,137.32z"/>
	<path fill="#FFFFFF" d="M208.658,131.273v1.389h1.26v0.67h-1.26v2.608c0,0.6,0.17,0.939,0.66,0.939c0.23,0,0.4-0.03,0.51-0.06
		l0.04,0.66c-0.17,0.07-0.44,0.12-0.78,0.12c-0.409,0-0.739-0.13-0.949-0.37c-0.25-0.26-0.34-0.689-0.34-1.259v-2.638h-0.75v-0.67
		h0.75v-1.159L208.658,131.273z"/>
	<path fill="#FFFFFF" d="M213.348,137.5v-1.769h-3.018v-0.58l2.898-4.148h0.949v4.038h0.909v0.689h-0.909v1.769H213.348z
		 M213.348,135.042v-2.169c0-0.34,0.01-0.68,0.03-1.02h-0.03c-0.199,0.38-0.359,0.66-0.539,0.959l-1.59,2.209v0.02H213.348z"/>
	<path fill="#FFFFFF" d="M215.3,137.9l2.788-7.246h0.68l-2.799,7.246H215.3z"/>
	<path fill="#FFFFFF" d="M219.379,136.44c0.39,0.24,0.959,0.44,1.559,0.44c0.891,0,1.41-0.47,1.41-1.149
		c0-0.629-0.36-0.989-1.27-1.339c-1.1-0.39-1.779-0.959-1.779-1.909c0-1.05,0.869-1.829,2.179-1.829c0.69,0,1.189,0.16,1.489,0.33
		l-0.24,0.71c-0.219-0.12-0.669-0.32-1.279-0.32c-0.919,0-1.269,0.549-1.269,1.009c0,0.63,0.409,0.939,1.339,1.299
		c1.14,0.44,1.719,0.989,1.719,1.979c0,1.039-0.77,1.939-2.358,1.939c-0.649,0-1.358-0.19-1.719-0.43L219.379,136.44z"/>
	<path fill="#FFFFFF" d="M228.447,136.181c0,0.5,0.01,0.939,0.039,1.319h-0.779l-0.05-0.79h-0.021
		c-0.229,0.39-0.739,0.899-1.599,0.899c-0.76,0-1.669-0.42-1.669-2.119v-2.829h0.879v2.679c0,0.919,0.28,1.539,1.08,1.539
		c0.59,0,1-0.41,1.159-0.8c0.05-0.13,0.08-0.29,0.08-0.45v-2.968h0.88V136.181z"/>
	<path fill="#FFFFFF" d="M230.889,131.303c0.01,0.3-0.211,0.54-0.561,0.54c-0.31,0-0.529-0.24-0.529-0.54
		c0-0.31,0.23-0.549,0.55-0.549C230.678,130.754,230.889,130.994,230.889,131.303z M229.908,137.5v-4.837h0.88v4.837H229.908z"/>
	<path fill="#FFFFFF" d="M233.309,131.273v1.389h1.259v0.67h-1.259v2.608c0,0.6,0.17,0.939,0.659,0.939
		c0.229,0,0.399-0.03,0.51-0.06l0.04,0.66c-0.17,0.07-0.439,0.12-0.779,0.12c-0.41,0-0.74-0.13-0.949-0.37
		c-0.25-0.26-0.34-0.689-0.34-1.259v-2.638h-0.75v-0.67h0.75v-1.159L233.309,131.273z"/>
	<path fill="#FFFFFF" d="M235.988,135.241c0.02,1.189,0.779,1.679,1.659,1.679c0.63,0,1.009-0.11,1.339-0.25l0.15,0.63
		c-0.311,0.14-0.84,0.3-1.609,0.3c-1.488,0-2.379-0.979-2.379-2.439c0-1.459,0.859-2.608,2.27-2.608
		c1.578,0,1.998,1.389,1.998,2.279c0,0.18-0.02,0.32-0.029,0.41H235.988z M238.566,134.612c0.011-0.56-0.229-1.429-1.219-1.429
		c-0.89,0-1.279,0.819-1.35,1.429H238.566z"/>
	<path fill="#FFFFFF" d="M242.139,131.823h-0.021l-1.13,0.609l-0.17-0.669l1.42-0.76h0.749v6.497h-0.849V131.823z"/>
	<path fill="#FFFFFF" d="M249.236,131.743h-2.479l-0.25,1.669c0.15-0.02,0.291-0.04,0.53-0.04c0.499,0,0.999,0.11,1.399,0.35
		c0.51,0.29,0.93,0.85,0.93,1.669c0,1.27-1.01,2.219-2.419,2.219c-0.71,0-1.31-0.2-1.619-0.4l0.22-0.669
		c0.27,0.16,0.8,0.36,1.389,0.36c0.83,0,1.539-0.54,1.539-1.409c-0.01-0.84-0.568-1.439-1.868-1.439c-0.37,0-0.659,0.04-0.899,0.07
		l0.42-3.119h3.107V131.743z"/>
</g>
<g>
	<path fill="#FFFFFF" d="M182.76,149.844c0.42-0.07,0.969-0.13,1.669-0.13c0.859,0,1.489,0.2,1.889,0.56
		c0.37,0.32,0.59,0.81,0.59,1.409c0,0.61-0.18,1.089-0.52,1.439c-0.46,0.49-1.21,0.739-2.06,0.739c-0.26,0-0.499-0.01-0.699-0.06
		v2.699h-0.869V149.844z M183.629,153.092c0.189,0.05,0.43,0.07,0.72,0.07c1.05,0,1.688-0.509,1.688-1.439
		c0-0.89-0.629-1.319-1.588-1.319c-0.381,0-0.67,0.03-0.82,0.07V153.092z"/>
	<path fill="#FFFFFF" d="M187.89,153.172c0-0.57-0.01-1.06-0.04-1.509h0.77l0.03,0.95h0.04c0.22-0.65,0.75-1.06,1.34-1.06
		c0.1,0,0.169,0.01,0.249,0.03v0.83c-0.09-0.02-0.18-0.03-0.3-0.03c-0.619,0-1.06,0.47-1.18,1.129c-0.02,0.12-0.039,0.26-0.039,0.41
		v2.579h-0.87V153.172z"/>
	<path fill="#FFFFFF" d="M195.438,154.042c0,1.789-1.24,2.568-2.408,2.568c-1.311,0-2.319-0.959-2.319-2.489
		c0-1.619,1.06-2.568,2.398-2.568C194.498,151.553,195.438,152.562,195.438,154.042z M191.6,154.091c0,1.06,0.609,1.859,1.469,1.859
		c0.84,0,1.469-0.79,1.469-1.879c0-0.819-0.409-1.859-1.449-1.859C192.049,152.212,191.6,153.172,191.6,154.091z"/>
	<path fill="#FFFFFF" d="M195.37,157.899c0.399-0.03,0.749-0.14,0.96-0.37c0.239-0.28,0.329-0.66,0.329-1.819v-4.048h0.88v4.388
		c0,0.939-0.15,1.549-0.58,1.989c-0.39,0.39-1.029,0.55-1.499,0.55L195.37,157.899z M197.639,150.303
		c0.01,0.29-0.199,0.54-0.549,0.54c-0.33,0-0.541-0.25-0.541-0.54c0-0.31,0.23-0.549,0.561-0.549
		C197.429,149.754,197.639,149.994,197.639,150.303z"/>
	<path fill="#FFFFFF" d="M199.469,154.241c0.021,1.189,0.78,1.679,1.66,1.679c0.629,0,1.009-0.11,1.339-0.25l0.149,0.63
		c-0.31,0.14-0.84,0.3-1.609,0.3c-1.488,0-2.378-0.979-2.378-2.439c0-1.459,0.859-2.608,2.269-2.608
		c1.579,0,1.999,1.389,1.999,2.279c0,0.18-0.021,0.32-0.03,0.41H199.469z M202.048,153.612c0.011-0.56-0.229-1.429-1.22-1.429
		c-0.889,0-1.279,0.819-1.349,1.429H202.048z"/>
	<path fill="#FFFFFF" d="M207.438,156.32c-0.23,0.12-0.74,0.28-1.389,0.28c-1.46,0-2.409-0.99-2.409-2.469
		c0-1.489,1.02-2.569,2.599-2.569c0.52,0,0.979,0.13,1.219,0.25l-0.199,0.68c-0.21-0.12-0.54-0.23-1.02-0.23
		c-1.109,0-1.709,0.82-1.709,1.829c0,1.12,0.719,1.809,1.679,1.809c0.5,0,0.829-0.13,1.079-0.24L207.438,156.32z"/>
	<path fill="#FFFFFF" d="M209.658,150.273v1.389h1.26v0.67h-1.26v2.608c0,0.6,0.17,0.939,0.66,0.939c0.23,0,0.4-0.03,0.51-0.06
		l0.04,0.66c-0.17,0.07-0.44,0.12-0.78,0.12c-0.409,0-0.739-0.13-0.949-0.37c-0.25-0.26-0.34-0.689-0.34-1.259v-2.638h-0.75v-0.67
		h0.75v-1.159L209.658,150.273z"/>
	<path fill="#FFFFFF" d="M215.508,150.743h-2.479l-0.25,1.669c0.149-0.02,0.289-0.04,0.529-0.04c0.5,0,1,0.11,1.398,0.35
		c0.51,0.29,0.93,0.85,0.93,1.669c0,1.27-1.009,2.219-2.418,2.219c-0.71,0-1.31-0.2-1.619-0.4l0.22-0.669
		c0.271,0.16,0.8,0.36,1.39,0.36c0.829,0,1.539-0.54,1.539-1.409c-0.01-0.84-0.57-1.439-1.869-1.439c-0.37,0-0.66,0.04-0.899,0.07
		l0.419-3.119h3.109V150.743z"/>
	<path fill="#FFFFFF" d="M216.3,156.9l2.788-7.246h0.68l-2.799,7.246H216.3z"/>
	<path fill="#FFFFFF" d="M220.379,155.44c0.39,0.24,0.959,0.44,1.559,0.44c0.891,0,1.41-0.47,1.41-1.149
		c0-0.629-0.36-0.989-1.27-1.339c-1.1-0.39-1.779-0.959-1.779-1.909c0-1.05,0.869-1.829,2.179-1.829c0.69,0,1.189,0.16,1.489,0.33
		l-0.24,0.71c-0.219-0.12-0.669-0.32-1.279-0.32c-0.919,0-1.269,0.549-1.269,1.009c0,0.63,0.409,0.939,1.339,1.299
		c1.14,0.44,1.719,0.989,1.719,1.979c0,1.039-0.77,1.939-2.358,1.939c-0.649,0-1.358-0.19-1.719-0.43L220.379,155.44z"/>
	<path fill="#FFFFFF" d="M229.447,155.181c0,0.5,0.01,0.939,0.039,1.319h-0.779l-0.05-0.79h-0.021
		c-0.229,0.39-0.739,0.899-1.599,0.899c-0.76,0-1.669-0.42-1.669-2.119v-2.829h0.879v2.679c0,0.919,0.28,1.539,1.08,1.539
		c0.59,0,1-0.41,1.159-0.8c0.05-0.13,0.08-0.29,0.08-0.45v-2.968h0.88V155.181z"/>
	<path fill="#FFFFFF" d="M231.889,150.303c0.01,0.3-0.211,0.54-0.561,0.54c-0.31,0-0.529-0.24-0.529-0.54
		c0-0.31,0.23-0.549,0.55-0.549C231.678,149.754,231.889,149.994,231.889,150.303z M230.908,156.5v-4.837h0.88v4.837H230.908z"/>
	<path fill="#FFFFFF" d="M234.309,150.273v1.389h1.259v0.67h-1.259v2.608c0,0.6,0.17,0.939,0.659,0.939
		c0.229,0,0.399-0.03,0.51-0.06l0.04,0.66c-0.17,0.07-0.439,0.12-0.779,0.12c-0.41,0-0.74-0.13-0.949-0.37
		c-0.25-0.26-0.34-0.689-0.34-1.259v-2.638h-0.75v-0.67h0.75v-1.159L234.309,150.273z"/>
	<path fill="#FFFFFF" d="M236.988,154.241c0.02,1.189,0.779,1.679,1.659,1.679c0.63,0,1.009-0.11,1.339-0.25l0.15,0.63
		c-0.311,0.14-0.84,0.3-1.609,0.3c-1.488,0-2.379-0.979-2.379-2.439c0-1.459,0.859-2.608,2.27-2.608
		c1.578,0,1.998,1.389,1.998,2.279c0,0.18-0.02,0.32-0.029,0.41H236.988z M239.566,153.612c0.011-0.56-0.229-1.429-1.219-1.429
		c-0.89,0-1.279,0.819-1.35,1.429H239.566z"/>
	<path fill="#FFFFFF" d="M245.447,150.003v0.58l-2.829,5.917h-0.909l2.818-5.747v-0.02h-3.178v-0.73H245.447z"/>
</g>
<g>
	<path fill="#FFFFFF" d="M200.76,167.844c0.42-0.07,0.969-0.13,1.669-0.13c0.859,0,1.489,0.2,1.889,0.56
		c0.37,0.32,0.59,0.81,0.59,1.409c0,0.61-0.18,1.089-0.52,1.439c-0.46,0.489-1.21,0.739-2.06,0.739c-0.26,0-0.499-0.01-0.699-0.061
		v2.699h-0.869V167.844z M201.629,171.092c0.189,0.05,0.43,0.07,0.72,0.07c1.05,0,1.688-0.51,1.688-1.439
		c0-0.89-0.629-1.319-1.588-1.319c-0.381,0-0.67,0.03-0.82,0.069V171.092z"/>
	<path fill="#FFFFFF" d="M205.89,171.172c0-0.57-0.01-1.06-0.04-1.51h0.77l0.03,0.95h0.04c0.22-0.649,0.75-1.06,1.34-1.06
		c0.1,0,0.169,0.01,0.249,0.029v0.83c-0.09-0.02-0.18-0.029-0.3-0.029c-0.619,0-1.06,0.469-1.18,1.129
		c-0.02,0.119-0.039,0.26-0.039,0.41v2.578h-0.87V171.172z"/>
	<path fill="#FFFFFF" d="M213.438,172.041c0,1.789-1.24,2.568-2.408,2.568c-1.311,0-2.319-0.959-2.319-2.488
		c0-1.619,1.06-2.568,2.398-2.568C212.498,169.553,213.438,170.563,213.438,172.041z M209.6,172.092
		c0,1.059,0.609,1.858,1.469,1.858c0.84,0,1.469-0.79,1.469-1.879c0-0.819-0.409-1.858-1.449-1.858
		C210.049,170.213,209.6,171.172,209.6,172.092z"/>
	<path fill="#FFFFFF" d="M213.37,175.899c0.399-0.03,0.749-0.14,0.96-0.37c0.239-0.279,0.329-0.66,0.329-1.818v-4.049h0.88v4.389
		c0,0.939-0.15,1.549-0.58,1.988c-0.39,0.39-1.029,0.55-1.499,0.55L213.37,175.899z M215.639,168.303
		c0.01,0.291-0.199,0.541-0.549,0.541c-0.33,0-0.541-0.25-0.541-0.541c0-0.309,0.23-0.549,0.561-0.549
		C215.429,167.754,215.639,167.994,215.639,168.303z"/>
	<path fill="#FFFFFF" d="M217.469,172.241c0.021,1.189,0.78,1.679,1.66,1.679c0.629,0,1.009-0.109,1.339-0.25l0.149,0.631
		c-0.31,0.139-0.84,0.299-1.609,0.299c-1.488,0-2.378-0.979-2.378-2.438c0-1.459,0.859-2.608,2.269-2.608
		c1.579,0,1.999,1.389,1.999,2.279c0,0.18-0.021,0.319-0.03,0.409H217.469z M220.048,171.611c0.011-0.56-0.229-1.429-1.22-1.429
		c-0.889,0-1.279,0.819-1.349,1.429H220.048z"/>
	<path fill="#FFFFFF" d="M225.438,174.32c-0.23,0.119-0.74,0.279-1.389,0.279c-1.46,0-2.409-0.989-2.409-2.469
		c0-1.488,1.02-2.568,2.599-2.568c0.52,0,0.979,0.131,1.219,0.25l-0.199,0.68c-0.21-0.12-0.54-0.23-1.02-0.23
		c-1.109,0-1.709,0.82-1.709,1.83c0,1.119,0.719,1.809,1.679,1.809c0.5,0,0.829-0.13,1.079-0.24L225.438,174.32z"/>
	<path fill="#FFFFFF" d="M227.658,168.273v1.389h1.26v0.67h-1.26v2.609c0,0.6,0.17,0.939,0.66,0.939c0.23,0,0.4-0.03,0.51-0.061
		l0.04,0.66c-0.17,0.069-0.44,0.119-0.78,0.119c-0.409,0-0.739-0.129-0.949-0.369c-0.25-0.26-0.34-0.689-0.34-1.26v-2.639h-0.75
		v-0.67h0.75v-1.158L227.658,168.273z"/>
	<path fill="#FFFFFF" d="M232.348,174.5v-1.77h-3.018v-0.579l2.898-4.147h0.949v4.037h0.909v0.689h-0.909v1.77H232.348z
		 M232.348,172.041v-2.168c0-0.34,0.01-0.68,0.03-1.02h-0.03c-0.199,0.379-0.359,0.659-0.539,0.959l-1.59,2.209v0.02H232.348z"/>
	<path fill="#FFFFFF" d="M234.3,174.9l2.788-7.246h0.68l-2.799,7.246H234.3z"/>
	<path fill="#FFFFFF" d="M238.379,173.44c0.39,0.24,0.959,0.44,1.559,0.44c0.891,0,1.41-0.471,1.41-1.15
		c0-0.629-0.36-0.988-1.27-1.339c-1.1-0.39-1.779-0.96-1.779-1.909c0-1.049,0.869-1.828,2.179-1.828c0.69,0,1.189,0.159,1.489,0.329
		l-0.24,0.71c-0.219-0.12-0.669-0.32-1.279-0.32c-0.919,0-1.269,0.55-1.269,1.01c0,0.63,0.409,0.939,1.339,1.299
		c1.14,0.44,1.719,0.99,1.719,1.979c0,1.039-0.77,1.938-2.358,1.938c-0.649,0-1.358-0.189-1.719-0.43L238.379,173.44z"/>
	<path fill="#FFFFFF" d="M247.447,173.181c0,0.5,0.01,0.939,0.039,1.319h-0.779l-0.05-0.789h-0.021
		c-0.229,0.389-0.739,0.898-1.599,0.898c-0.76,0-1.669-0.42-1.669-2.118v-2.829h0.879v2.68c0,0.919,0.28,1.539,1.08,1.539
		c0.59,0,1-0.41,1.159-0.801c0.05-0.129,0.08-0.289,0.08-0.449v-2.969h0.88V173.181z"/>
	<path fill="#FFFFFF" d="M249.889,168.303c0.01,0.301-0.211,0.541-0.561,0.541c-0.31,0-0.529-0.24-0.529-0.541
		c0-0.309,0.23-0.549,0.55-0.549C249.678,167.754,249.889,167.994,249.889,168.303z M248.908,174.5v-4.838h0.88v4.838H248.908z"/>
	<path fill="#FFFFFF" d="M252.309,168.273v1.389h1.259v0.67h-1.259v2.609c0,0.6,0.17,0.939,0.659,0.939
		c0.229,0,0.399-0.03,0.51-0.061l0.04,0.66c-0.17,0.069-0.439,0.119-0.779,0.119c-0.41,0-0.74-0.129-0.949-0.369
		c-0.25-0.26-0.34-0.689-0.34-1.26v-2.639h-0.75v-0.67h0.75v-1.158L252.309,168.273z"/>
	<path fill="#FFFFFF" d="M254.988,172.241c0.02,1.189,0.779,1.679,1.659,1.679c0.63,0,1.009-0.109,1.339-0.25l0.15,0.631
		c-0.311,0.139-0.84,0.299-1.609,0.299c-1.488,0-2.379-0.979-2.379-2.438c0-1.459,0.859-2.608,2.27-2.608
		c1.578,0,1.998,1.389,1.998,2.279c0,0.18-0.02,0.319-0.029,0.409H254.988z M257.566,171.611c0.011-0.56-0.229-1.429-1.219-1.429
		c-0.89,0-1.279,0.819-1.35,1.429H257.566z"/>
	<path fill="#FFFFFF" d="M261.139,168.823h-0.021l-1.13,0.609l-0.17-0.669l1.42-0.76h0.749v6.496h-0.849V168.823z"/>
	<path fill="#FFFFFF" d="M268.576,168.004v0.579l-2.828,5.917h-0.909l2.818-5.747v-0.02h-3.179v-0.729H268.576z"/>
</g>
<g>
	<path fill="#FFFFFF" d="M241.76,185.844c0.42-0.07,0.969-0.13,1.669-0.13c0.859,0,1.489,0.2,1.889,0.56
		c0.37,0.32,0.59,0.81,0.59,1.409c0,0.61-0.18,1.089-0.52,1.439c-0.46,0.489-1.21,0.739-2.06,0.739c-0.26,0-0.499-0.01-0.699-0.061
		v2.699h-0.869V185.844z M242.629,189.092c0.189,0.05,0.43,0.07,0.72,0.07c1.05,0,1.688-0.51,1.688-1.439
		c0-0.89-0.629-1.319-1.588-1.319c-0.381,0-0.67,0.03-0.82,0.069V189.092z"/>
	<path fill="#FFFFFF" d="M246.89,189.172c0-0.57-0.01-1.06-0.04-1.51h0.77l0.03,0.95h0.04c0.22-0.649,0.75-1.06,1.34-1.06
		c0.1,0,0.169,0.01,0.249,0.029v0.83c-0.09-0.02-0.18-0.029-0.3-0.029c-0.619,0-1.06,0.469-1.18,1.129
		c-0.02,0.119-0.039,0.26-0.039,0.41v2.578h-0.87V189.172z"/>
	<path fill="#FFFFFF" d="M254.438,190.041c0,1.789-1.24,2.568-2.408,2.568c-1.311,0-2.319-0.959-2.319-2.488
		c0-1.619,1.06-2.568,2.398-2.568C253.498,187.553,254.438,188.563,254.438,190.041z M250.6,190.092
		c0,1.059,0.609,1.858,1.469,1.858c0.84,0,1.469-0.79,1.469-1.879c0-0.819-0.409-1.858-1.449-1.858
		C251.049,188.213,250.6,189.172,250.6,190.092z"/>
	<path fill="#FFFFFF" d="M254.37,193.899c0.399-0.03,0.749-0.14,0.96-0.37c0.239-0.279,0.329-0.66,0.329-1.818v-4.049h0.88v4.389
		c0,0.939-0.15,1.549-0.58,1.988c-0.39,0.39-1.029,0.55-1.499,0.55L254.37,193.899z M256.639,186.303
		c0.01,0.291-0.199,0.541-0.549,0.541c-0.33,0-0.541-0.25-0.541-0.541c0-0.309,0.23-0.549,0.561-0.549
		C256.429,185.754,256.639,185.994,256.639,186.303z"/>
	<path fill="#FFFFFF" d="M258.469,190.241c0.021,1.189,0.78,1.679,1.66,1.679c0.629,0,1.009-0.109,1.339-0.25l0.149,0.631
		c-0.31,0.139-0.84,0.299-1.609,0.299c-1.488,0-2.378-0.979-2.378-2.438c0-1.459,0.859-2.608,2.269-2.608
		c1.579,0,1.999,1.389,1.999,2.279c0,0.18-0.021,0.319-0.03,0.409H258.469z M261.048,189.611c0.011-0.56-0.229-1.429-1.22-1.429
		c-0.889,0-1.279,0.819-1.349,1.429H261.048z"/>
	<path fill="#FFFFFF" d="M266.438,192.32c-0.23,0.119-0.74,0.279-1.389,0.279c-1.46,0-2.409-0.989-2.409-2.469
		c0-1.488,1.02-2.568,2.599-2.568c0.52,0,0.979,0.131,1.219,0.25l-0.199,0.68c-0.21-0.12-0.54-0.23-1.02-0.23
		c-1.109,0-1.709,0.82-1.709,1.83c0,1.119,0.719,1.809,1.679,1.809c0.5,0,0.829-0.13,1.079-0.24L266.438,192.32z"/>
	<path fill="#FFFFFF" d="M268.658,186.273v1.389h1.26v0.67h-1.26v2.609c0,0.6,0.17,0.939,0.66,0.939c0.23,0,0.4-0.03,0.51-0.061
		l0.04,0.66c-0.17,0.069-0.44,0.119-0.78,0.119c-0.409,0-0.739-0.129-0.949-0.369c-0.25-0.26-0.34-0.689-0.34-1.26v-2.639h-0.75
		v-0.67h0.75v-1.158L268.658,186.273z"/>
	<path fill="#FFFFFF" d="M273.348,192.5v-1.77h-3.018v-0.579l2.898-4.147h0.949v4.037h0.909v0.689h-0.909v1.77H273.348z
		 M273.348,190.041v-2.168c0-0.34,0.01-0.68,0.03-1.02h-0.03c-0.199,0.379-0.359,0.659-0.539,0.959l-1.59,2.209v0.02H273.348z"/>
	<path fill="#FFFFFF" d="M275.3,192.9l2.788-7.246h0.68l-2.799,7.246H275.3z"/>
	<path fill="#FFFFFF" d="M279.379,191.44c0.39,0.24,0.959,0.44,1.559,0.44c0.891,0,1.41-0.471,1.41-1.15
		c0-0.629-0.36-0.988-1.27-1.339c-1.1-0.39-1.779-0.96-1.779-1.909c0-1.049,0.869-1.828,2.179-1.828c0.69,0,1.189,0.159,1.489,0.329
		l-0.24,0.71c-0.219-0.12-0.669-0.32-1.279-0.32c-0.919,0-1.269,0.55-1.269,1.01c0,0.63,0.409,0.939,1.339,1.299
		c1.14,0.44,1.719,0.99,1.719,1.979c0,1.039-0.77,1.938-2.358,1.938c-0.649,0-1.358-0.189-1.719-0.43L279.379,191.44z"/>
	<path fill="#FFFFFF" d="M288.447,191.181c0,0.5,0.01,0.939,0.039,1.319h-0.779l-0.05-0.789h-0.021
		c-0.229,0.389-0.739,0.898-1.599,0.898c-0.76,0-1.669-0.42-1.669-2.118v-2.829h0.879v2.68c0,0.919,0.28,1.539,1.08,1.539
		c0.59,0,1-0.41,1.159-0.801c0.05-0.129,0.08-0.289,0.08-0.449v-2.969h0.88V191.181z"/>
	<path fill="#FFFFFF" d="M290.889,186.303c0.01,0.301-0.211,0.541-0.561,0.541c-0.31,0-0.529-0.24-0.529-0.541
		c0-0.309,0.23-0.549,0.55-0.549C290.678,185.754,290.889,185.994,290.889,186.303z M289.908,192.5v-4.838h0.88v4.838H289.908z"/>
	<path fill="#FFFFFF" d="M293.309,186.273v1.389h1.259v0.67h-1.259v2.609c0,0.6,0.17,0.939,0.659,0.939
		c0.229,0,0.399-0.03,0.51-0.061l0.04,0.66c-0.17,0.069-0.439,0.119-0.779,0.119c-0.41,0-0.74-0.129-0.949-0.369
		c-0.25-0.26-0.34-0.689-0.34-1.26v-2.639h-0.75v-0.67h0.75v-1.158L293.309,186.273z"/>
	<path fill="#FFFFFF" d="M295.988,190.241c0.02,1.189,0.779,1.679,1.659,1.679c0.63,0,1.009-0.109,1.339-0.25l0.15,0.631
		c-0.311,0.139-0.84,0.299-1.609,0.299c-1.488,0-2.379-0.979-2.379-2.438c0-1.459,0.859-2.608,2.27-2.608
		c1.578,0,1.998,1.389,1.998,2.279c0,0.18-0.02,0.319-0.029,0.409H295.988z M298.566,189.611c0.011-0.56-0.229-1.429-1.219-1.429
		c-0.89,0-1.279,0.819-1.35,1.429H298.566z"/>
	<path fill="#FFFFFF" d="M300.229,192.5v-0.539l0.689-0.67c1.66-1.58,2.409-2.419,2.42-3.398c0-0.66-0.32-1.27-1.29-1.27
		c-0.589,0-1.079,0.3-1.379,0.55l-0.28-0.62c0.45-0.379,1.09-0.659,1.84-0.659c1.398,0,1.988,0.96,1.988,1.89
		c0,1.199-0.869,2.168-2.238,3.487l-0.52,0.479v0.021h2.918v0.729H300.229z"/>
	<path fill="#FFFFFF" d="M305.359,192.5v-0.539l0.689-0.67c1.658-1.58,2.408-2.419,2.418-3.398c0-0.66-0.319-1.27-1.289-1.27
		c-0.59,0-1.079,0.3-1.379,0.55l-0.279-0.62c0.449-0.379,1.089-0.659,1.838-0.659c1.399,0,1.989,0.96,1.989,1.89
		c0,1.199-0.87,2.168-2.239,3.487l-0.52,0.479v0.021h2.919v0.729H305.359z"/>
</g>
<g>
	<path fill="#FFFFFF" d="M273.76,204.344c0.42-0.07,0.969-0.13,1.669-0.13c0.859,0,1.489,0.2,1.889,0.56
		c0.37,0.32,0.59,0.81,0.59,1.409c0,0.61-0.18,1.089-0.52,1.439c-0.46,0.489-1.21,0.739-2.06,0.739c-0.26,0-0.499-0.01-0.699-0.061
		V211h-0.869V204.344z M274.629,207.592c0.189,0.05,0.43,0.07,0.72,0.07c1.05,0,1.688-0.51,1.688-1.439
		c0-0.89-0.629-1.319-1.588-1.319c-0.381,0-0.67,0.03-0.82,0.069V207.592z"/>
	<path fill="#FFFFFF" d="M278.89,207.672c0-0.57-0.01-1.06-0.04-1.51h0.77l0.03,0.95h0.04c0.22-0.649,0.75-1.06,1.34-1.06
		c0.1,0,0.169,0.01,0.249,0.029v0.83c-0.09-0.02-0.18-0.029-0.3-0.029c-0.619,0-1.06,0.469-1.18,1.129
		c-0.02,0.119-0.039,0.26-0.039,0.41V211h-0.87V207.672z"/>
	<path fill="#FFFFFF" d="M286.438,208.541c0,1.789-1.24,2.568-2.408,2.568c-1.311,0-2.319-0.959-2.319-2.488
		c0-1.619,1.06-2.568,2.398-2.568C285.498,206.053,286.438,207.063,286.438,208.541z M282.6,208.592
		c0,1.059,0.609,1.858,1.469,1.858c0.84,0,1.469-0.79,1.469-1.879c0-0.819-0.409-1.858-1.449-1.858
		C283.049,206.713,282.6,207.672,282.6,208.592z"/>
	<path fill="#FFFFFF" d="M286.37,212.399c0.399-0.03,0.749-0.14,0.96-0.37c0.239-0.279,0.329-0.66,0.329-1.818v-4.049h0.88v4.389
		c0,0.939-0.15,1.549-0.58,1.988c-0.39,0.39-1.029,0.55-1.499,0.55L286.37,212.399z M288.639,204.803
		c0.01,0.291-0.199,0.541-0.549,0.541c-0.33,0-0.541-0.25-0.541-0.541c0-0.309,0.23-0.549,0.561-0.549
		C288.429,204.254,288.639,204.494,288.639,204.803z"/>
	<path fill="#FFFFFF" d="M290.469,208.741c0.021,1.189,0.78,1.679,1.66,1.679c0.629,0,1.009-0.109,1.339-0.25l0.149,0.631
		c-0.31,0.139-0.84,0.299-1.609,0.299c-1.488,0-2.378-0.979-2.378-2.438c0-1.459,0.859-2.608,2.269-2.608
		c1.579,0,1.999,1.389,1.999,2.279c0,0.18-0.021,0.319-0.03,0.409H290.469z M293.048,208.111c0.011-0.56-0.229-1.429-1.22-1.429
		c-0.889,0-1.279,0.819-1.349,1.429H293.048z"/>
	<path fill="#FFFFFF" d="M298.438,210.82c-0.23,0.119-0.74,0.279-1.389,0.279c-1.46,0-2.409-0.989-2.409-2.469
		c0-1.488,1.02-2.568,2.599-2.568c0.52,0,0.979,0.131,1.219,0.25l-0.199,0.68c-0.21-0.12-0.54-0.23-1.02-0.23
		c-1.109,0-1.709,0.82-1.709,1.83c0,1.119,0.719,1.809,1.679,1.809c0.5,0,0.829-0.13,1.079-0.24L298.438,210.82z"/>
	<path fill="#FFFFFF" d="M300.658,204.773v1.389h1.26v0.67h-1.26v2.609c0,0.6,0.17,0.939,0.66,0.939c0.23,0,0.4-0.03,0.51-0.061
		l0.04,0.66c-0.17,0.069-0.44,0.119-0.78,0.119c-0.409,0-0.739-0.129-0.949-0.369c-0.25-0.26-0.34-0.689-0.34-1.26v-2.639h-0.75
		v-0.67h0.75v-1.158L300.658,204.773z"/>
	<path fill="#FFFFFF" d="M305.348,211v-1.77h-3.018v-0.579l2.898-4.147h0.949v4.037h0.909v0.689h-0.909V211H305.348z
		 M305.348,208.541v-2.168c0-0.34,0.01-0.68,0.03-1.02h-0.03c-0.199,0.379-0.359,0.659-0.539,0.959l-1.59,2.209v0.02H305.348z"/>
	<path fill="#FFFFFF" d="M307.3,211.4l2.788-7.246h0.68l-2.799,7.246H307.3z"/>
	<path fill="#FFFFFF" d="M311.379,209.94c0.39,0.24,0.959,0.44,1.559,0.44c0.891,0,1.41-0.471,1.41-1.15
		c0-0.629-0.36-0.988-1.27-1.339c-1.1-0.39-1.779-0.96-1.779-1.909c0-1.049,0.869-1.828,2.179-1.828c0.69,0,1.189,0.159,1.489,0.329
		l-0.24,0.71c-0.219-0.12-0.669-0.32-1.279-0.32c-0.919,0-1.269,0.55-1.269,1.01c0,0.63,0.409,0.939,1.339,1.299
		c1.14,0.44,1.719,0.99,1.719,1.979c0,1.039-0.77,1.938-2.358,1.938c-0.649,0-1.358-0.189-1.719-0.43L311.379,209.94z"/>
	<path fill="#FFFFFF" d="M320.447,209.681c0,0.5,0.01,0.939,0.039,1.319h-0.779l-0.05-0.789h-0.021
		c-0.229,0.389-0.739,0.898-1.599,0.898c-0.76,0-1.669-0.42-1.669-2.118v-2.829h0.879v2.68c0,0.919,0.28,1.539,1.08,1.539
		c0.59,0,1-0.41,1.159-0.801c0.05-0.129,0.08-0.289,0.08-0.449v-2.969h0.88V209.681z"/>
	<path fill="#FFFFFF" d="M322.889,204.803c0.01,0.301-0.211,0.541-0.561,0.541c-0.31,0-0.529-0.24-0.529-0.541
		c0-0.309,0.23-0.549,0.55-0.549C322.678,204.254,322.889,204.494,322.889,204.803z M321.908,211v-4.838h0.88V211H321.908z"/>
	<path fill="#FFFFFF" d="M325.309,204.773v1.389h1.259v0.67h-1.259v2.609c0,0.6,0.17,0.939,0.659,0.939
		c0.229,0,0.399-0.03,0.51-0.061l0.04,0.66c-0.17,0.069-0.439,0.119-0.779,0.119c-0.41,0-0.74-0.129-0.949-0.369
		c-0.25-0.26-0.34-0.689-0.34-1.26v-2.639h-0.75v-0.67h0.75v-1.158L325.309,204.773z"/>
	<path fill="#FFFFFF" d="M327.988,208.741c0.02,1.189,0.779,1.679,1.659,1.679c0.63,0,1.009-0.109,1.339-0.25l0.15,0.631
		c-0.311,0.139-0.84,0.299-1.609,0.299c-1.488,0-2.379-0.979-2.379-2.438c0-1.459,0.859-2.608,2.27-2.608
		c1.578,0,1.998,1.389,1.998,2.279c0,0.18-0.02,0.319-0.029,0.409H327.988z M330.566,208.111c0.011-0.56-0.229-1.429-1.219-1.429
		c-0.89,0-1.279,0.819-1.35,1.429H330.566z"/>
	<path fill="#FFFFFF" d="M332.229,211v-0.539l0.689-0.67c1.66-1.58,2.409-2.419,2.42-3.398c0-0.66-0.32-1.27-1.29-1.27
		c-0.589,0-1.079,0.3-1.379,0.55l-0.28-0.62c0.45-0.379,1.09-0.659,1.84-0.659c1.398,0,1.988,0.96,1.988,1.89
		c0,1.199-0.869,2.168-2.238,3.487l-0.52,0.479v0.021h2.918V211H332.229z"/>
	<path fill="#FFFFFF" d="M341.236,205.243h-2.479l-0.25,1.669c0.15-0.02,0.291-0.04,0.53-0.04c0.499,0,0.999,0.11,1.399,0.351
		c0.51,0.289,0.93,0.85,0.93,1.668c0,1.27-1.01,2.219-2.419,2.219c-0.71,0-1.31-0.199-1.619-0.399l0.22-0.669
		c0.27,0.159,0.8,0.359,1.389,0.359c0.83,0,1.539-0.539,1.539-1.409c-0.01-0.84-0.568-1.439-1.868-1.439
		c-0.37,0-0.659,0.04-0.899,0.07l0.42-3.118h3.107V205.243z"/>
</g>
<g>
	<path fill="#FFFFFF" d="M145.76,112.344c0.419-0.07,0.969-0.13,1.669-0.13c0.859,0,1.489,0.2,1.889,0.56
		c0.37,0.32,0.59,0.81,0.59,1.409c0,0.61-0.18,1.089-0.52,1.439c-0.46,0.49-1.209,0.739-2.059,0.739c-0.26,0-0.5-0.01-0.7-0.06V119
		h-0.869V112.344z M146.629,115.592c0.19,0.05,0.43,0.07,0.72,0.07c1.049,0,1.689-0.509,1.689-1.439c0-0.89-0.629-1.319-1.589-1.319
		c-0.38,0-0.67,0.03-0.82,0.07V115.592z"/>
	<path fill="#FFFFFF" d="M150.89,115.672c0-0.57-0.01-1.06-0.04-1.509h0.77l0.03,0.95h0.04c0.22-0.65,0.75-1.06,1.339-1.06
		c0.1,0,0.169,0.01,0.25,0.03v0.83c-0.09-0.02-0.18-0.03-0.3-0.03c-0.62,0-1.06,0.47-1.179,1.129c-0.02,0.12-0.04,0.26-0.04,0.41
		V119h-0.87V115.672z"/>
	<path fill="#FFFFFF" d="M158.438,116.542c0,1.789-1.24,2.568-2.409,2.568c-1.31,0-2.319-0.959-2.319-2.489
		c0-1.619,1.06-2.568,2.398-2.568C157.498,114.053,158.438,115.062,158.438,116.542z M154.6,116.591c0,1.06,0.609,1.859,1.469,1.859
		c0.84,0,1.469-0.79,1.469-1.879c0-0.819-0.41-1.859-1.449-1.859C155.049,114.712,154.6,115.672,154.6,116.591z"/>
	<path fill="#FFFFFF" d="M158.37,120.399c0.4-0.03,0.75-0.14,0.959-0.37c0.24-0.28,0.33-0.66,0.33-1.819v-4.048h0.88v4.388
		c0,0.939-0.15,1.549-0.58,1.989c-0.39,0.39-1.029,0.55-1.499,0.55L158.37,120.399z M160.639,112.803c0.01,0.29-0.2,0.54-0.549,0.54
		c-0.33,0-0.54-0.25-0.54-0.54c0-0.31,0.23-0.549,0.56-0.549C160.429,112.254,160.639,112.494,160.639,112.803z"/>
	<path fill="#FFFFFF" d="M162.469,116.741c0.02,1.189,0.78,1.679,1.659,1.679c0.63,0,1.009-0.11,1.339-0.25l0.15,0.63
		c-0.31,0.14-0.84,0.3-1.609,0.3c-1.489,0-2.378-0.979-2.378-2.439c0-1.459,0.859-2.608,2.269-2.608
		c1.579,0,1.999,1.389,1.999,2.279c0,0.18-0.02,0.32-0.03,0.41H162.469z M165.048,116.112c0.01-0.56-0.23-1.429-1.219-1.429
		c-0.89,0-1.279,0.819-1.349,1.429H165.048z"/>
	<path fill="#FFFFFF" d="M170.438,118.82c-0.23,0.12-0.74,0.28-1.389,0.28c-1.459,0-2.409-0.99-2.409-2.469
		c0-1.489,1.02-2.569,2.599-2.569c0.52,0,0.979,0.13,1.219,0.25l-0.2,0.68c-0.21-0.12-0.54-0.23-1.02-0.23
		c-1.109,0-1.709,0.82-1.709,1.829c0,1.12,0.719,1.809,1.679,1.809c0.5,0,0.83-0.13,1.08-0.24L170.438,118.82z"/>
	<path fill="#FFFFFF" d="M172.659,112.773v1.389h1.259v0.67h-1.259v2.608c0,0.6,0.17,0.939,0.66,0.939c0.23,0,0.4-0.03,0.51-0.06
		l0.04,0.66c-0.17,0.07-0.44,0.12-0.78,0.12c-0.41,0-0.74-0.13-0.949-0.37c-0.25-0.26-0.34-0.689-0.34-1.259v-2.638h-0.75v-0.67
		h0.75v-1.159L172.659,112.773z"/>
	<path fill="#FFFFFF" d="M177.348,119v-1.769h-3.018v-0.58l2.899-4.148h0.949v4.038h0.909v0.689h-0.909V119H177.348z
		 M177.348,116.542v-2.169c0-0.34,0.01-0.68,0.03-1.02h-0.03c-0.199,0.38-0.359,0.66-0.539,0.959l-1.59,2.209v0.02H177.348z"/>
	<path fill="#FFFFFF" d="M179.3,119.4l2.788-7.246h0.68l-2.799,7.246H179.3z"/>
	<path fill="#FFFFFF" d="M183.379,117.94c0.39,0.24,0.959,0.44,1.559,0.44c0.891,0,1.41-0.47,1.41-1.149
		c0-0.629-0.36-0.989-1.27-1.339c-1.1-0.39-1.779-0.959-1.779-1.909c0-1.05,0.869-1.829,2.179-1.829c0.69,0,1.189,0.16,1.489,0.33
		l-0.24,0.71c-0.219-0.12-0.669-0.32-1.279-0.32c-0.919,0-1.269,0.549-1.269,1.009c0,0.63,0.409,0.939,1.339,1.299
		c1.14,0.44,1.719,0.989,1.719,1.979c0,1.039-0.77,1.939-2.358,1.939c-0.649,0-1.358-0.19-1.719-0.43L183.379,117.94z"/>
	<path fill="#FFFFFF" d="M192.447,117.681c0,0.5,0.01,0.939,0.039,1.319h-0.779l-0.05-0.79h-0.021
		c-0.229,0.39-0.739,0.899-1.599,0.899c-0.76,0-1.669-0.42-1.669-2.119v-2.829h0.879v2.679c0,0.919,0.28,1.539,1.08,1.539
		c0.59,0,1-0.41,1.159-0.8c0.05-0.13,0.08-0.29,0.08-0.45v-2.968h0.88V117.681z"/>
	<path fill="#FFFFFF" d="M194.889,112.803c0.01,0.3-0.211,0.54-0.561,0.54c-0.31,0-0.529-0.24-0.529-0.54
		c0-0.31,0.23-0.549,0.55-0.549C194.678,112.254,194.889,112.494,194.889,112.803z M193.908,119v-4.837h0.88V119H193.908z"/>
	<path fill="#FFFFFF" d="M197.309,112.773v1.389h1.259v0.67h-1.259v2.608c0,0.6,0.17,0.939,0.659,0.939
		c0.229,0,0.399-0.03,0.51-0.06l0.04,0.66c-0.17,0.07-0.439,0.12-0.779,0.12c-0.41,0-0.74-0.13-0.949-0.37
		c-0.25-0.26-0.34-0.689-0.34-1.259v-2.638h-0.75v-0.67h0.75v-1.159L197.309,112.773z"/>
	<path fill="#FFFFFF" d="M199.988,116.741c0.02,1.189,0.779,1.679,1.659,1.679c0.63,0,1.009-0.11,1.339-0.25l0.15,0.63
		c-0.311,0.14-0.84,0.3-1.609,0.3c-1.488,0-2.379-0.979-2.379-2.439c0-1.459,0.859-2.608,2.27-2.608
		c1.578,0,1.998,1.389,1.998,2.279c0,0.18-0.02,0.32-0.029,0.41H199.988z M202.566,116.112c0.011-0.56-0.229-1.429-1.219-1.429
		c-0.89,0-1.279,0.819-1.35,1.429H202.566z"/>
	<path fill="#FFFFFF" d="M208.107,113.243h-2.479l-0.25,1.669c0.149-0.02,0.289-0.04,0.529-0.04c0.5,0,1,0.11,1.398,0.35
		c0.51,0.29,0.93,0.85,0.93,1.669c0,1.27-1.009,2.219-2.418,2.219c-0.71,0-1.31-0.2-1.619-0.4l0.22-0.669
		c0.271,0.16,0.8,0.36,1.39,0.36c0.829,0,1.539-0.54,1.539-1.409c-0.01-0.84-0.57-1.439-1.869-1.439c-0.37,0-0.66,0.04-0.899,0.07
		l0.419-3.119h3.109V113.243z"/>
	<path fill="#FFFFFF" d="M208.899,119.4l2.788-7.246h0.68l-2.799,7.246H208.899z"/>
	<path fill="#FFFFFF" d="M214.378,113.003h-2.049v-0.74h4.987v0.74h-2.059V119h-0.88V113.003z"/>
	<path fill="#FFFFFF" d="M220.077,119l-0.069-0.61h-0.031c-0.27,0.38-0.789,0.72-1.479,0.72c-0.979,0-1.479-0.689-1.479-1.389
		c0-1.169,1.04-1.809,2.909-1.799v-0.1c0-0.4-0.11-1.12-1.1-1.12c-0.45,0-0.92,0.14-1.26,0.36l-0.199-0.58
		c0.399-0.26,0.979-0.43,1.588-0.43c1.48,0,1.84,1.009,1.84,1.979v1.809c0,0.419,0.02,0.83,0.08,1.159H220.077z M219.947,116.531
		c-0.959-0.02-2.049,0.15-2.049,1.089c0,0.57,0.379,0.84,0.83,0.84c0.629,0,1.029-0.4,1.168-0.81c0.031-0.09,0.051-0.19,0.051-0.28
		V116.531z"/>
	<path fill="#FFFFFF" d="M222.099,118.101c0.26,0.17,0.72,0.35,1.159,0.35c0.64,0,0.939-0.32,0.939-0.72
		c0-0.419-0.25-0.649-0.899-0.889c-0.87-0.31-1.279-0.79-1.279-1.369c0-0.78,0.63-1.419,1.669-1.419c0.49,0,0.92,0.14,1.189,0.3
		l-0.22,0.64c-0.19-0.12-0.54-0.28-0.989-0.28c-0.52,0-0.811,0.3-0.811,0.66c0,0.4,0.291,0.58,0.92,0.819
		c0.84,0.32,1.27,0.74,1.27,1.459c0,0.85-0.66,1.449-1.809,1.449c-0.53,0-1.02-0.13-1.359-0.33L222.099,118.101z"/>
	<path fill="#FFFFFF" d="M227.048,116.381h0.021c0.119-0.17,0.289-0.38,0.43-0.55l1.419-1.669h1.06l-1.869,1.989l2.129,2.849h-1.07
		l-1.668-2.319l-0.45,0.5V119h-0.87v-7.096h0.87V116.381z"/>
	<path fill="#FFFFFF" d="M234.467,113.243h-2.479l-0.25,1.669c0.149-0.02,0.289-0.04,0.529-0.04c0.5,0,1,0.11,1.398,0.35
		c0.51,0.29,0.93,0.85,0.93,1.669c0,1.27-1.009,2.219-2.418,2.219c-0.71,0-1.31-0.2-1.619-0.4l0.22-0.669
		c0.271,0.16,0.8,0.36,1.39,0.36c0.829,0,1.539-0.54,1.539-1.409c-0.01-0.84-0.57-1.439-1.869-1.439c-0.37,0-0.66,0.04-0.899,0.07
		l0.419-3.119h3.109V113.243z"/>
	<path fill="#FFFFFF" d="M238.037,115.972v0.649h-2.469v-0.649H238.037z"/>
	<path fill="#FFFFFF" d="M239.877,113.003h-2.049v-0.74h4.987v0.74h-2.059V119h-0.88V113.003z"/>
	<path fill="#FFFFFF" d="M245.576,119l-0.069-0.61h-0.03c-0.27,0.38-0.789,0.72-1.479,0.72c-0.98,0-1.48-0.689-1.48-1.389
		c0-1.169,1.04-1.809,2.909-1.799v-0.1c0-0.4-0.11-1.12-1.1-1.12c-0.45,0-0.919,0.14-1.259,0.36l-0.2-0.58
		c0.399-0.26,0.979-0.43,1.589-0.43c1.479,0,1.84,1.009,1.84,1.979v1.809c0,0.419,0.02,0.83,0.079,1.159H245.576z M245.447,116.531
		c-0.96-0.02-2.049,0.15-2.049,1.089c0,0.57,0.379,0.84,0.829,0.84c0.63,0,1.029-0.4,1.169-0.81c0.03-0.09,0.051-0.19,0.051-0.28
		V116.531z"/>
	<path fill="#FFFFFF" d="M247.598,118.101c0.26,0.17,0.72,0.35,1.159,0.35c0.64,0,0.94-0.32,0.94-0.72c0-0.419-0.25-0.649-0.9-0.889
		c-0.869-0.31-1.279-0.79-1.279-1.369c0-0.78,0.63-1.419,1.67-1.419c0.489,0,0.919,0.14,1.188,0.3l-0.22,0.64
		c-0.189-0.12-0.539-0.28-0.989-0.28c-0.52,0-0.81,0.3-0.81,0.66c0,0.4,0.29,0.58,0.92,0.819c0.839,0.32,1.269,0.74,1.269,1.459
		c0,0.85-0.659,1.449-1.809,1.449c-0.529,0-1.02-0.13-1.359-0.33L247.598,118.101z"/>
	<path fill="#FFFFFF" d="M252.547,116.381h0.021c0.12-0.17,0.29-0.38,0.43-0.55l1.419-1.669h1.06l-1.869,1.989l2.129,2.849h-1.069
		l-1.669-2.319l-0.45,0.5V119h-0.869v-7.096h0.869V116.381z"/>
	<path fill="#FFFFFF" d="M256.598,118.38c0.19,0.02,0.41,0,0.71-0.03c0.51-0.07,0.989-0.28,1.359-0.63
		c0.43-0.39,0.739-0.959,0.859-1.729h-0.03c-0.359,0.44-0.879,0.7-1.528,0.7c-1.17,0-1.919-0.88-1.919-1.989
		c0-1.229,0.889-2.309,2.219-2.309c1.329,0,2.148,1.08,2.148,2.739c0,1.429-0.479,2.428-1.119,3.048
		c-0.5,0.49-1.189,0.79-1.89,0.869c-0.319,0.05-0.6,0.06-0.81,0.05V118.38z M256.918,114.643c0,0.81,0.489,1.379,1.249,1.379
		c0.59,0,1.05-0.29,1.279-0.68c0.05-0.08,0.08-0.18,0.08-0.32c0-1.109-0.409-1.958-1.329-1.958
		C257.447,113.063,256.918,113.723,256.918,114.643z"/>
</g>
<g>
	<path fill="#FFFFFF" d="M175.76,94.844c0.42-0.07,0.969-0.13,1.669-0.13c0.859,0,1.489,0.2,1.889,0.56
		c0.37,0.32,0.59,0.81,0.59,1.409c0,0.61-0.18,1.089-0.52,1.439c-0.46,0.49-1.21,0.739-2.06,0.739c-0.26,0-0.499-0.01-0.699-0.06
		v2.699h-0.869V94.844z M176.629,98.092c0.189,0.05,0.43,0.07,0.72,0.07c1.05,0,1.688-0.509,1.688-1.439
		c0-0.89-0.629-1.319-1.588-1.319c-0.381,0-0.67,0.03-0.82,0.07V98.092z"/>
	<path fill="#FFFFFF" d="M180.89,98.172c0-0.57-0.01-1.06-0.04-1.509h0.77l0.03,0.95h0.04c0.22-0.65,0.75-1.06,1.34-1.06
		c0.1,0,0.169,0.01,0.249,0.03v0.83c-0.09-0.02-0.18-0.03-0.3-0.03c-0.619,0-1.06,0.47-1.18,1.129c-0.02,0.12-0.039,0.26-0.039,0.41
		v2.579h-0.87V98.172z"/>
	<path fill="#FFFFFF" d="M188.438,99.042c0,1.789-1.24,2.568-2.408,2.568c-1.311,0-2.319-0.959-2.319-2.489
		c0-1.619,1.06-2.568,2.398-2.568C187.498,96.553,188.438,97.562,188.438,99.042z M184.6,99.091c0,1.06,0.609,1.859,1.469,1.859
		c0.84,0,1.469-0.79,1.469-1.879c0-0.819-0.409-1.859-1.449-1.859C185.049,97.212,184.6,98.172,184.6,99.091z"/>
	<path fill="#FFFFFF" d="M188.37,102.899c0.399-0.03,0.749-0.14,0.96-0.37c0.239-0.28,0.329-0.66,0.329-1.819v-4.048h0.88v4.388
		c0,0.939-0.15,1.549-0.58,1.989c-0.39,0.39-1.029,0.55-1.499,0.55L188.37,102.899z M190.639,95.303
		c0.01,0.29-0.199,0.54-0.549,0.54c-0.33,0-0.541-0.25-0.541-0.54c0-0.31,0.23-0.549,0.561-0.549
		C190.429,94.754,190.639,94.994,190.639,95.303z"/>
	<path fill="#FFFFFF" d="M192.469,99.241c0.021,1.189,0.78,1.679,1.66,1.679c0.629,0,1.009-0.11,1.339-0.25l0.149,0.63
		c-0.31,0.14-0.84,0.3-1.609,0.3c-1.488,0-2.378-0.979-2.378-2.439c0-1.459,0.859-2.608,2.269-2.608
		c1.579,0,1.999,1.389,1.999,2.279c0,0.18-0.021,0.32-0.03,0.41H192.469z M195.048,98.612c0.011-0.56-0.229-1.429-1.22-1.429
		c-0.889,0-1.279,0.819-1.349,1.429H195.048z"/>
	<path fill="#FFFFFF" d="M200.438,101.32c-0.23,0.12-0.74,0.28-1.389,0.28c-1.46,0-2.409-0.99-2.409-2.469
		c0-1.489,1.02-2.569,2.599-2.569c0.52,0,0.979,0.13,1.219,0.25l-0.199,0.68c-0.21-0.12-0.54-0.23-1.02-0.23
		c-1.109,0-1.709,0.82-1.709,1.829c0,1.12,0.719,1.809,1.679,1.809c0.5,0,0.829-0.13,1.079-0.24L200.438,101.32z"/>
	<path fill="#FFFFFF" d="M202.658,95.273v1.389h1.26v0.67h-1.26v2.608c0,0.6,0.17,0.939,0.66,0.939c0.23,0,0.4-0.03,0.51-0.06
		l0.04,0.66c-0.17,0.07-0.44,0.12-0.78,0.12c-0.409,0-0.739-0.13-0.949-0.37c-0.25-0.26-0.34-0.689-0.34-1.259v-2.638h-0.75v-0.67
		h0.75v-1.159L202.658,95.273z"/>
	<path fill="#FFFFFF" d="M207.348,101.5v-1.769h-3.018v-0.58l2.898-4.148h0.949v4.038h0.909v0.689h-0.909v1.769H207.348z
		 M207.348,99.042v-2.169c0-0.34,0.01-0.68,0.03-1.02h-0.03c-0.199,0.38-0.359,0.66-0.539,0.959l-1.59,2.209v0.02H207.348z"/>
	<path fill="#FFFFFF" d="M209.3,101.9l2.788-7.246h0.68l-2.799,7.246H209.3z"/>
	<path fill="#FFFFFF" d="M213.379,100.44c0.39,0.24,0.959,0.44,1.559,0.44c0.891,0,1.41-0.47,1.41-1.149
		c0-0.629-0.36-0.989-1.27-1.339c-1.1-0.39-1.779-0.959-1.779-1.909c0-1.05,0.869-1.829,2.179-1.829c0.69,0,1.189,0.16,1.489,0.33
		l-0.24,0.71c-0.219-0.12-0.669-0.32-1.279-0.32c-0.919,0-1.269,0.549-1.269,1.009c0,0.63,0.409,0.939,1.339,1.299
		c1.14,0.44,1.719,0.989,1.719,1.979c0,1.039-0.77,1.939-2.358,1.939c-0.649,0-1.358-0.19-1.719-0.43L213.379,100.44z"/>
	<path fill="#FFFFFF" d="M222.447,100.181c0,0.5,0.01,0.939,0.039,1.319h-0.779l-0.05-0.79h-0.021
		c-0.229,0.39-0.739,0.899-1.599,0.899c-0.76,0-1.669-0.42-1.669-2.119v-2.829h0.879v2.679c0,0.919,0.28,1.539,1.08,1.539
		c0.59,0,1-0.41,1.159-0.8c0.05-0.13,0.08-0.29,0.08-0.45v-2.968h0.88V100.181z"/>
	<path fill="#FFFFFF" d="M224.889,95.303c0.01,0.3-0.211,0.54-0.561,0.54c-0.31,0-0.529-0.24-0.529-0.54
		c0-0.31,0.23-0.549,0.55-0.549C224.678,94.754,224.889,94.994,224.889,95.303z M223.908,101.5v-4.837h0.88v4.837H223.908z"/>
	<path fill="#FFFFFF" d="M227.309,95.273v1.389h1.259v0.67h-1.259v2.608c0,0.6,0.17,0.939,0.659,0.939c0.229,0,0.399-0.03,0.51-0.06
		l0.04,0.66c-0.17,0.07-0.439,0.12-0.779,0.12c-0.41,0-0.74-0.13-0.949-0.37c-0.25-0.26-0.34-0.689-0.34-1.259v-2.638h-0.75v-0.67
		h0.75v-1.159L227.309,95.273z"/>
	<path fill="#FFFFFF" d="M229.988,99.241c0.02,1.189,0.779,1.679,1.659,1.679c0.63,0,1.009-0.11,1.339-0.25l0.15,0.63
		c-0.311,0.14-0.84,0.3-1.609,0.3c-1.488,0-2.379-0.979-2.379-2.439c0-1.459,0.859-2.608,2.27-2.608
		c1.578,0,1.998,1.389,1.998,2.279c0,0.18-0.02,0.32-0.029,0.41H229.988z M232.566,98.612c0.011-0.56-0.229-1.429-1.219-1.429
		c-0.89,0-1.279,0.819-1.35,1.429H232.566z"/>
	<path fill="#FFFFFF" d="M236.139,95.823h-0.021l-1.13,0.609l-0.17-0.669l1.42-0.76h0.749v6.497h-0.849V95.823z"/>
</g>
<g>
	<path fill="#FFFFFF" d="M96.76,78.344c0.419-0.07,0.969-0.13,1.669-0.13c0.859,0,1.489,0.2,1.889,0.56
		c0.37,0.32,0.59,0.81,0.59,1.409c0,0.61-0.18,1.089-0.52,1.439c-0.46,0.49-1.209,0.739-2.059,0.739c-0.26,0-0.5-0.01-0.7-0.06V85
		H96.76V78.344z M97.629,81.592c0.19,0.05,0.43,0.07,0.72,0.07c1.049,0,1.689-0.509,1.689-1.439c0-0.89-0.629-1.319-1.589-1.319
		c-0.38,0-0.67,0.03-0.82,0.07V81.592z"/>
	<path fill="#FFFFFF" d="M101.89,81.672c0-0.57-0.01-1.06-0.04-1.509h0.77l0.03,0.95h0.04c0.22-0.65,0.75-1.06,1.339-1.06
		c0.1,0,0.169,0.01,0.25,0.03v0.83c-0.09-0.02-0.18-0.03-0.3-0.03c-0.62,0-1.06,0.47-1.179,1.129c-0.02,0.12-0.04,0.26-0.04,0.41V85
		h-0.87V81.672z"/>
	<path fill="#FFFFFF" d="M109.438,82.542c0,1.789-1.24,2.568-2.409,2.568c-1.31,0-2.319-0.959-2.319-2.489
		c0-1.619,1.06-2.568,2.398-2.568C108.498,80.053,109.438,81.062,109.438,82.542z M105.6,82.591c0,1.06,0.609,1.859,1.469,1.859
		c0.84,0,1.469-0.79,1.469-1.879c0-0.819-0.41-1.859-1.449-1.859C106.049,80.712,105.6,81.672,105.6,82.591z"/>
	<path fill="#FFFFFF" d="M109.37,86.399c0.4-0.03,0.75-0.14,0.959-0.37c0.24-0.28,0.33-0.66,0.33-1.819v-4.048h0.88v4.388
		c0,0.939-0.15,1.549-0.58,1.989c-0.39,0.39-1.029,0.55-1.499,0.55L109.37,86.399z M111.639,78.803c0.01,0.29-0.2,0.54-0.549,0.54
		c-0.33,0-0.54-0.25-0.54-0.54c0-0.31,0.23-0.549,0.56-0.549C111.429,78.254,111.639,78.494,111.639,78.803z"/>
	<path fill="#FFFFFF" d="M113.469,82.741c0.02,1.189,0.78,1.679,1.659,1.679c0.63,0,1.009-0.11,1.339-0.25l0.15,0.63
		c-0.31,0.14-0.84,0.3-1.609,0.3c-1.489,0-2.378-0.979-2.378-2.439c0-1.459,0.859-2.608,2.269-2.608
		c1.579,0,1.999,1.389,1.999,2.279c0,0.18-0.02,0.32-0.03,0.41H113.469z M116.048,82.112c0.01-0.56-0.23-1.429-1.219-1.429
		c-0.89,0-1.279,0.819-1.349,1.429H116.048z"/>
	<path fill="#FFFFFF" d="M121.438,84.82c-0.23,0.12-0.74,0.28-1.389,0.28c-1.459,0-2.409-0.99-2.409-2.469
		c0-1.489,1.02-2.569,2.599-2.569c0.52,0,0.979,0.13,1.219,0.25l-0.2,0.68c-0.21-0.12-0.54-0.23-1.02-0.23
		c-1.109,0-1.709,0.82-1.709,1.829c0,1.12,0.719,1.809,1.679,1.809c0.5,0,0.83-0.13,1.08-0.24L121.438,84.82z"/>
	<path fill="#FFFFFF" d="M123.659,78.773v1.389h1.259v0.67h-1.259v2.608c0,0.6,0.17,0.939,0.66,0.939c0.23,0,0.4-0.03,0.51-0.06
		l0.04,0.66c-0.17,0.07-0.44,0.12-0.78,0.12c-0.41,0-0.74-0.13-0.949-0.37c-0.25-0.26-0.34-0.689-0.34-1.259v-2.638h-0.75v-0.67
		h0.75v-1.159L123.659,78.773z"/>
	<path fill="#FFFFFF" d="M125.839,83.991c0.25,0.16,0.83,0.41,1.439,0.41c1.129,0,1.479-0.72,1.469-1.259
		c-0.01-0.91-0.83-1.299-1.679-1.299h-0.49v-0.66h0.49c0.64,0,1.449-0.33,1.449-1.1c0-0.52-0.33-0.979-1.14-0.979
		c-0.52,0-1.02,0.23-1.299,0.43l-0.23-0.64c0.34-0.25,1-0.5,1.699-0.5c1.279,0,1.859,0.76,1.859,1.549
		c0,0.669-0.399,1.239-1.199,1.529v0.02c0.8,0.16,1.449,0.76,1.449,1.669c0,1.039-0.81,1.949-2.369,1.949
		c-0.729,0-1.369-0.23-1.689-0.439L125.839,83.991z"/>
	<path fill="#FFFFFF" d="M130.3,85.4l2.788-7.246h0.68l-2.798,7.246H130.3z"/>
	<path fill="#FFFFFF" d="M134.379,83.94c0.39,0.24,0.959,0.44,1.559,0.44c0.89,0,1.409-0.47,1.409-1.149
		c0-0.629-0.36-0.989-1.269-1.339c-1.1-0.39-1.779-0.959-1.779-1.909c0-1.05,0.87-1.829,2.179-1.829c0.69,0,1.189,0.16,1.489,0.33
		l-0.24,0.71c-0.22-0.12-0.669-0.32-1.279-0.32c-0.919,0-1.269,0.549-1.269,1.009c0,0.63,0.41,0.939,1.339,1.299
		c1.14,0.44,1.719,0.989,1.719,1.979c0,1.039-0.77,1.939-2.359,1.939c-0.649,0-1.359-0.19-1.719-0.43L134.379,83.94z"/>
	<path fill="#FFFFFF" d="M143.447,83.681c0,0.5,0.01,0.939,0.04,1.319h-0.78l-0.05-0.79h-0.02c-0.23,0.39-0.74,0.899-1.599,0.899
		c-0.76,0-1.669-0.42-1.669-2.119v-2.829h0.879v2.679c0,0.919,0.28,1.539,1.08,1.539c0.589,0,1-0.41,1.159-0.8
		c0.05-0.13,0.08-0.29,0.08-0.45v-2.968h0.879V83.681z"/>
	<path fill="#FFFFFF" d="M145.888,78.803c0.01,0.3-0.21,0.54-0.56,0.54c-0.31,0-0.53-0.24-0.53-0.54c0-0.31,0.23-0.549,0.55-0.549
		C145.678,78.254,145.888,78.494,145.888,78.803z M144.909,85v-4.837h0.879V85H144.909z"/>
	<path fill="#FFFFFF" d="M148.308,78.773v1.389h1.259v0.67h-1.259v2.608c0,0.6,0.17,0.939,0.66,0.939c0.23,0,0.4-0.03,0.51-0.06
		l0.04,0.66c-0.17,0.07-0.44,0.12-0.78,0.12c-0.41,0-0.74-0.13-0.949-0.37c-0.25-0.26-0.34-0.689-0.34-1.259v-2.638h-0.75v-0.67
		h0.75v-1.159L148.308,78.773z"/>
	<path fill="#FFFFFF" d="M150.988,82.741c0.02,1.189,0.78,1.679,1.659,1.679c0.63,0,1.009-0.11,1.339-0.25l0.15,0.63
		c-0.31,0.14-0.84,0.3-1.609,0.3c-1.489,0-2.378-0.979-2.378-2.439c0-1.459,0.859-2.608,2.269-2.608
		c1.579,0,1.999,1.389,1.999,2.279c0,0.18-0.02,0.32-0.03,0.41H150.988z M153.567,82.112c0.01-0.56-0.23-1.429-1.219-1.429
		c-0.89,0-1.279,0.819-1.349,1.429H153.567z"/>
	<path fill="#FFFFFF" d="M155.739,84.38c0.19,0.02,0.41,0,0.709-0.03c0.51-0.07,0.99-0.28,1.359-0.63
		c0.43-0.39,0.74-0.959,0.859-1.729h-0.03c-0.36,0.44-0.879,0.7-1.529,0.7c-1.169,0-1.919-0.88-1.919-1.989
		c0-1.229,0.89-2.309,2.219-2.309c1.33,0,2.149,1.08,2.149,2.739c0,1.429-0.479,2.428-1.119,3.048c-0.5,0.49-1.189,0.79-1.889,0.869
		c-0.32,0.05-0.6,0.06-0.81,0.05V84.38z M156.059,80.643c0,0.81,0.49,1.379,1.25,1.379c0.589,0,1.049-0.29,1.279-0.68
		c0.05-0.08,0.08-0.18,0.08-0.32c0-1.109-0.41-1.958-1.329-1.958C156.588,79.063,156.059,79.723,156.059,80.643z"/>
</g>
<g>
	<path fill="#FFFFFF" d="M113.26,59.844c0.419-0.07,0.969-0.13,1.669-0.13c0.859,0,1.489,0.2,1.889,0.56
		c0.37,0.32,0.59,0.81,0.59,1.409c0,0.61-0.18,1.089-0.52,1.439c-0.46,0.49-1.209,0.739-2.059,0.739c-0.26,0-0.5-0.01-0.7-0.06V66.5
		h-0.869V59.844z M114.129,63.092c0.19,0.05,0.43,0.07,0.72,0.07c1.049,0,1.689-0.509,1.689-1.439c0-0.89-0.629-1.319-1.589-1.319
		c-0.38,0-0.67,0.03-0.82,0.07V63.092z"/>
	<path fill="#FFFFFF" d="M118.39,63.172c0-0.57-0.01-1.06-0.04-1.509h0.77l0.03,0.95h0.04c0.22-0.65,0.75-1.06,1.339-1.06
		c0.1,0,0.169,0.01,0.25,0.03v0.83c-0.09-0.02-0.18-0.03-0.3-0.03c-0.62,0-1.06,0.47-1.179,1.129c-0.02,0.12-0.04,0.26-0.04,0.41
		V66.5h-0.87V63.172z"/>
	<path fill="#FFFFFF" d="M125.938,64.042c0,1.789-1.24,2.568-2.409,2.568c-1.31,0-2.319-0.959-2.319-2.489
		c0-1.619,1.06-2.568,2.398-2.568C124.998,61.553,125.938,62.562,125.938,64.042z M122.1,64.091c0,1.06,0.609,1.859,1.469,1.859
		c0.84,0,1.469-0.79,1.469-1.879c0-0.819-0.41-1.859-1.449-1.859C122.549,62.212,122.1,63.172,122.1,64.091z"/>
	<path fill="#FFFFFF" d="M125.87,67.899c0.4-0.03,0.75-0.14,0.959-0.37c0.24-0.28,0.33-0.66,0.33-1.819v-4.048h0.88v4.388
		c0,0.939-0.15,1.549-0.58,1.989c-0.39,0.39-1.029,0.55-1.499,0.55L125.87,67.899z M128.139,60.303c0.01,0.29-0.2,0.54-0.549,0.54
		c-0.33,0-0.54-0.25-0.54-0.54c0-0.31,0.23-0.549,0.56-0.549C127.929,59.754,128.139,59.994,128.139,60.303z"/>
	<path fill="#FFFFFF" d="M129.969,64.241c0.02,1.189,0.78,1.679,1.659,1.679c0.63,0,1.009-0.11,1.339-0.25l0.15,0.63
		c-0.31,0.14-0.84,0.3-1.609,0.3c-1.489,0-2.378-0.979-2.378-2.439c0-1.459,0.859-2.608,2.269-2.608
		c1.579,0,1.999,1.389,1.999,2.279c0,0.18-0.02,0.32-0.03,0.41H129.969z M132.548,63.612c0.01-0.56-0.23-1.429-1.219-1.429
		c-0.89,0-1.279,0.819-1.349,1.429H132.548z"/>
	<path fill="#FFFFFF" d="M137.938,66.32c-0.23,0.12-0.74,0.28-1.389,0.28c-1.459,0-2.409-0.99-2.409-2.469
		c0-1.489,1.02-2.569,2.599-2.569c0.52,0,0.979,0.13,1.219,0.25l-0.2,0.68c-0.21-0.12-0.54-0.23-1.02-0.23
		c-1.109,0-1.709,0.82-1.709,1.829c0,1.12,0.719,1.809,1.679,1.809c0.5,0,0.83-0.13,1.08-0.24L137.938,66.32z"/>
	<path fill="#FFFFFF" d="M140.159,60.273v1.389h1.259v0.67h-1.259v2.608c0,0.6,0.17,0.939,0.66,0.939c0.23,0,0.4-0.03,0.51-0.06
		l0.04,0.66c-0.17,0.07-0.44,0.12-0.78,0.12c-0.41,0-0.74-0.13-0.949-0.37c-0.25-0.26-0.34-0.689-0.34-1.259v-2.638h-0.75v-0.67
		h0.75v-1.159L140.159,60.273z"/>
	<path fill="#FFFFFF" d="M142.339,65.491c0.25,0.16,0.83,0.41,1.439,0.41c1.129,0,1.479-0.72,1.469-1.259
		c-0.01-0.91-0.83-1.299-1.679-1.299h-0.49v-0.66h0.49c0.64,0,1.449-0.33,1.449-1.1c0-0.52-0.33-0.979-1.14-0.979
		c-0.52,0-1.02,0.23-1.299,0.43l-0.23-0.64c0.34-0.25,1-0.5,1.699-0.5c1.279,0,1.859,0.76,1.859,1.549
		c0,0.669-0.399,1.239-1.199,1.529v0.02c0.8,0.16,1.449,0.76,1.449,1.669c0,1.039-0.81,1.949-2.369,1.949
		c-0.729,0-1.369-0.23-1.689-0.439L142.339,65.491z"/>
	<path fill="#FFFFFF" d="M146.8,66.9l2.788-7.246h0.68l-2.798,7.246H146.8z"/>
	<path fill="#FFFFFF" d="M150.879,65.44c0.39,0.24,0.959,0.44,1.559,0.44c0.89,0,1.409-0.47,1.409-1.149
		c0-0.629-0.36-0.989-1.269-1.339c-1.1-0.39-1.779-0.959-1.779-1.909c0-1.05,0.87-1.829,2.179-1.829c0.69,0,1.189,0.16,1.489,0.33
		l-0.24,0.71c-0.22-0.12-0.669-0.32-1.279-0.32c-0.919,0-1.269,0.549-1.269,1.009c0,0.63,0.41,0.939,1.339,1.299
		c1.14,0.44,1.719,0.989,1.719,1.979c0,1.039-0.77,1.939-2.359,1.939c-0.649,0-1.359-0.19-1.719-0.43L150.879,65.44z"/>
	<path fill="#FFFFFF" d="M159.947,65.181c0,0.5,0.01,0.939,0.04,1.319h-0.78l-0.05-0.79h-0.02c-0.23,0.39-0.74,0.899-1.599,0.899
		c-0.76,0-1.669-0.42-1.669-2.119v-2.829h0.879v2.679c0,0.919,0.28,1.539,1.08,1.539c0.589,0,1-0.41,1.159-0.8
		c0.05-0.13,0.08-0.29,0.08-0.45v-2.968h0.879V65.181z"/>
	<path fill="#FFFFFF" d="M162.388,60.303c0.01,0.3-0.21,0.54-0.56,0.54c-0.31,0-0.53-0.24-0.53-0.54c0-0.31,0.23-0.549,0.55-0.549
		C162.178,59.754,162.388,59.994,162.388,60.303z M161.409,66.5v-4.837h0.879V66.5H161.409z"/>
	<path fill="#FFFFFF" d="M164.808,60.273v1.389h1.259v0.67h-1.259v2.608c0,0.6,0.17,0.939,0.66,0.939c0.23,0,0.4-0.03,0.51-0.06
		l0.04,0.66c-0.17,0.07-0.44,0.12-0.78,0.12c-0.41,0-0.74-0.13-0.949-0.37c-0.25-0.26-0.34-0.689-0.34-1.259v-2.638h-0.75v-0.67
		h0.75v-1.159L164.808,60.273z"/>
	<path fill="#FFFFFF" d="M167.488,64.241c0.02,1.189,0.78,1.679,1.659,1.679c0.63,0,1.009-0.11,1.339-0.25l0.15,0.63
		c-0.31,0.14-0.84,0.3-1.609,0.3c-1.489,0-2.378-0.979-2.378-2.439c0-1.459,0.859-2.608,2.269-2.608
		c1.579,0,1.999,1.389,1.999,2.279c0,0.18-0.02,0.32-0.03,0.41H167.488z M170.067,63.612c0.01-0.56-0.23-1.429-1.219-1.429
		c-0.89,0-1.279,0.819-1.349,1.429H170.067z"/>
	<path fill="#FFFFFF" d="M175.947,60.003v0.58l-2.829,5.917h-0.909l2.818-5.747v-0.02h-3.178v-0.73H175.947z"/>
</g>
<g>
	<path fill="#FFFFFF" d="M113.26,40.844c0.419-0.07,0.969-0.13,1.669-0.13c0.859,0,1.489,0.2,1.889,0.56
		c0.37,0.32,0.59,0.81,0.59,1.409c0,0.61-0.18,1.089-0.52,1.439c-0.46,0.49-1.209,0.739-2.059,0.739c-0.26,0-0.5-0.01-0.7-0.06V47.5
		h-0.869V40.844z M114.129,44.092c0.19,0.05,0.43,0.07,0.72,0.07c1.049,0,1.689-0.509,1.689-1.439c0-0.89-0.629-1.319-1.589-1.319
		c-0.38,0-0.67,0.03-0.82,0.07V44.092z"/>
	<path fill="#FFFFFF" d="M118.39,44.172c0-0.57-0.01-1.06-0.04-1.509h0.77l0.03,0.95h0.04c0.22-0.65,0.75-1.06,1.339-1.06
		c0.1,0,0.169,0.01,0.25,0.03v0.83c-0.09-0.02-0.18-0.03-0.3-0.03c-0.62,0-1.06,0.47-1.179,1.129c-0.02,0.12-0.04,0.26-0.04,0.41
		V47.5h-0.87V44.172z"/>
	<path fill="#FFFFFF" d="M125.938,45.042c0,1.789-1.24,2.568-2.409,2.568c-1.31,0-2.319-0.959-2.319-2.489
		c0-1.619,1.06-2.568,2.398-2.568C124.998,42.553,125.938,43.562,125.938,45.042z M122.1,45.091c0,1.06,0.609,1.859,1.469,1.859
		c0.84,0,1.469-0.79,1.469-1.879c0-0.819-0.41-1.859-1.449-1.859C122.549,43.212,122.1,44.172,122.1,45.091z"/>
	<path fill="#FFFFFF" d="M125.87,48.899c0.4-0.03,0.75-0.14,0.959-0.37c0.24-0.28,0.33-0.66,0.33-1.819v-4.048h0.88v4.388
		c0,0.939-0.15,1.549-0.58,1.989c-0.39,0.39-1.029,0.55-1.499,0.55L125.87,48.899z M128.139,41.303c0.01,0.29-0.2,0.54-0.549,0.54
		c-0.33,0-0.54-0.25-0.54-0.54c0-0.31,0.23-0.549,0.56-0.549C127.929,40.754,128.139,40.994,128.139,41.303z"/>
	<path fill="#FFFFFF" d="M129.969,45.241c0.02,1.189,0.78,1.679,1.659,1.679c0.63,0,1.009-0.11,1.339-0.25l0.15,0.63
		c-0.31,0.14-0.84,0.3-1.609,0.3c-1.489,0-2.378-0.979-2.378-2.439c0-1.459,0.859-2.608,2.269-2.608
		c1.579,0,1.999,1.389,1.999,2.279c0,0.18-0.02,0.32-0.03,0.41H129.969z M132.548,44.612c0.01-0.56-0.23-1.429-1.219-1.429
		c-0.89,0-1.279,0.819-1.349,1.429H132.548z"/>
	<path fill="#FFFFFF" d="M137.938,47.32c-0.23,0.12-0.74,0.28-1.389,0.28c-1.459,0-2.409-0.99-2.409-2.469
		c0-1.489,1.02-2.569,2.599-2.569c0.52,0,0.979,0.13,1.219,0.25l-0.2,0.68c-0.21-0.12-0.54-0.23-1.02-0.23
		c-1.109,0-1.709,0.82-1.709,1.829c0,1.12,0.719,1.809,1.679,1.809c0.5,0,0.83-0.13,1.08-0.24L137.938,47.32z"/>
	<path fill="#FFFFFF" d="M140.159,41.273v1.389h1.259v0.67h-1.259v2.608c0,0.6,0.17,0.939,0.66,0.939c0.23,0,0.4-0.03,0.51-0.06
		l0.04,0.66c-0.17,0.07-0.44,0.12-0.78,0.12c-0.41,0-0.74-0.13-0.949-0.37c-0.25-0.26-0.34-0.689-0.34-1.259v-2.638h-0.75v-0.67
		h0.75v-1.159L140.159,41.273z"/>
	<path fill="#FFFFFF" d="M142.339,46.491c0.25,0.16,0.83,0.41,1.439,0.41c1.129,0,1.479-0.72,1.469-1.259
		c-0.01-0.91-0.83-1.299-1.679-1.299h-0.49v-0.66h0.49c0.64,0,1.449-0.33,1.449-1.1c0-0.52-0.33-0.979-1.14-0.979
		c-0.52,0-1.02,0.23-1.299,0.43l-0.23-0.64c0.34-0.25,1-0.5,1.699-0.5c1.279,0,1.859,0.76,1.859,1.549
		c0,0.669-0.399,1.239-1.199,1.529v0.02c0.8,0.16,1.449,0.76,1.449,1.669c0,1.039-0.81,1.949-2.369,1.949
		c-0.729,0-1.369-0.23-1.689-0.439L142.339,46.491z"/>
	<path fill="#FFFFFF" d="M146.8,47.9l2.788-7.246h0.68l-2.798,7.246H146.8z"/>
	<path fill="#FFFFFF" d="M150.879,46.44c0.39,0.24,0.959,0.44,1.559,0.44c0.89,0,1.409-0.47,1.409-1.149
		c0-0.629-0.36-0.989-1.269-1.339c-1.1-0.39-1.779-0.959-1.779-1.909c0-1.05,0.87-1.829,2.179-1.829c0.69,0,1.189,0.16,1.489,0.33
		l-0.24,0.71c-0.22-0.12-0.669-0.32-1.279-0.32c-0.919,0-1.269,0.549-1.269,1.009c0,0.63,0.41,0.939,1.339,1.299
		c1.14,0.44,1.719,0.989,1.719,1.979c0,1.039-0.77,1.939-2.359,1.939c-0.649,0-1.359-0.19-1.719-0.43L150.879,46.44z"/>
	<path fill="#FFFFFF" d="M159.947,46.181c0,0.5,0.01,0.939,0.04,1.319h-0.78l-0.05-0.79h-0.02c-0.23,0.39-0.74,0.899-1.599,0.899
		c-0.76,0-1.669-0.42-1.669-2.119v-2.829h0.879v2.679c0,0.919,0.28,1.539,1.08,1.539c0.589,0,1-0.41,1.159-0.8
		c0.05-0.13,0.08-0.29,0.08-0.45v-2.968h0.879V46.181z"/>
	<path fill="#FFFFFF" d="M162.388,41.303c0.01,0.3-0.21,0.54-0.56,0.54c-0.31,0-0.53-0.24-0.53-0.54c0-0.31,0.23-0.549,0.55-0.549
		C162.178,40.754,162.388,40.994,162.388,41.303z M161.409,47.5v-4.837h0.879V47.5H161.409z"/>
	<path fill="#FFFFFF" d="M164.808,41.273v1.389h1.259v0.67h-1.259v2.608c0,0.6,0.17,0.939,0.66,0.939c0.23,0,0.4-0.03,0.51-0.06
		l0.04,0.66c-0.17,0.07-0.44,0.12-0.78,0.12c-0.41,0-0.74-0.13-0.949-0.37c-0.25-0.26-0.34-0.689-0.34-1.259v-2.638h-0.75v-0.67
		h0.75v-1.159L164.808,41.273z"/>
	<path fill="#FFFFFF" d="M167.488,45.241c0.02,1.189,0.78,1.679,1.659,1.679c0.63,0,1.009-0.11,1.339-0.25l0.15,0.63
		c-0.31,0.14-0.84,0.3-1.609,0.3c-1.489,0-2.378-0.979-2.378-2.439c0-1.459,0.859-2.608,2.269-2.608
		c1.579,0,1.999,1.389,1.999,2.279c0,0.18-0.02,0.32-0.03,0.41H167.488z M170.067,44.612c0.01-0.56-0.23-1.429-1.219-1.429
		c-0.89,0-1.279,0.819-1.349,1.429H170.067z"/>
	<path fill="#FFFFFF" d="M175.438,41.623c-0.18-0.01-0.41,0-0.66,0.04c-1.379,0.23-2.109,1.239-2.259,2.309h0.03
		c0.31-0.41,0.849-0.75,1.569-0.75c1.15,0,1.958,0.83,1.958,2.099c0,1.189-0.809,2.289-2.158,2.289
		c-1.389,0-2.299-1.079-2.299-2.769c0-1.279,0.46-2.289,1.1-2.928c0.54-0.53,1.259-0.859,2.079-0.959
		c0.259-0.04,0.48-0.05,0.64-0.05V41.623z M175.188,45.371c0-0.929-0.53-1.489-1.34-1.489c-0.529,0-1.019,0.33-1.259,0.8
		c-0.06,0.1-0.1,0.23-0.1,0.39c0.02,1.069,0.51,1.859,1.429,1.859C174.677,46.93,175.188,46.301,175.188,45.371z"/>
	<path fill="#FFFFFF" d="M176.399,47.9l2.788-7.246h0.68l-2.799,7.246H176.399z"/>
	<path fill="#FFFFFF" d="M181.878,41.503h-2.049v-0.74h4.987v0.74h-2.059V47.5h-0.88V41.503z"/>
	<path fill="#FFFFFF" d="M187.577,47.5l-0.069-0.61h-0.031c-0.27,0.38-0.789,0.72-1.479,0.72c-0.979,0-1.479-0.689-1.479-1.389
		c0-1.169,1.04-1.809,2.909-1.799v-0.1c0-0.4-0.11-1.12-1.1-1.12c-0.45,0-0.92,0.14-1.26,0.36l-0.199-0.58
		c0.399-0.26,0.979-0.43,1.588-0.43c1.48,0,1.84,1.009,1.84,1.979v1.809c0,0.419,0.02,0.83,0.08,1.159H187.577z M187.447,45.031
		c-0.959-0.02-2.049,0.15-2.049,1.089c0,0.57,0.379,0.84,0.83,0.84c0.629,0,1.029-0.4,1.168-0.81c0.031-0.09,0.051-0.19,0.051-0.28
		V45.031z"/>
	<path fill="#FFFFFF" d="M189.599,46.601c0.26,0.17,0.72,0.35,1.159,0.35c0.64,0,0.939-0.32,0.939-0.72
		c0-0.419-0.25-0.649-0.899-0.889c-0.87-0.31-1.279-0.79-1.279-1.369c0-0.78,0.63-1.419,1.669-1.419c0.49,0,0.92,0.14,1.189,0.3
		l-0.22,0.64c-0.19-0.12-0.54-0.28-0.989-0.28c-0.52,0-0.811,0.3-0.811,0.66c0,0.4,0.291,0.58,0.92,0.819
		c0.84,0.32,1.27,0.74,1.27,1.459c0,0.85-0.66,1.449-1.809,1.449c-0.53,0-1.02-0.13-1.359-0.33L189.599,46.601z"/>
	<path fill="#FFFFFF" d="M194.548,44.881h0.021c0.119-0.17,0.289-0.38,0.43-0.55l1.419-1.669h1.06l-1.869,1.989l2.129,2.849h-1.07
		l-1.668-2.319l-0.45,0.5V47.5h-0.87v-7.096h0.87V44.881z"/>
	<path fill="#FFFFFF" d="M199.998,41.823h-0.021l-1.13,0.609l-0.17-0.669l1.42-0.76h0.749V47.5h-0.849V41.823z"/>
	<path fill="#FFFFFF" d="M205.537,44.472v0.649h-2.469v-0.649H205.537z"/>
	<path fill="#FFFFFF" d="M207.377,41.503h-2.049v-0.74h4.987v0.74h-2.059V47.5h-0.88V41.503z"/>
	<path fill="#FFFFFF" d="M213.076,47.5l-0.069-0.61h-0.03c-0.27,0.38-0.789,0.72-1.479,0.72c-0.98,0-1.48-0.689-1.48-1.389
		c0-1.169,1.04-1.809,2.909-1.799v-0.1c0-0.4-0.11-1.12-1.1-1.12c-0.45,0-0.919,0.14-1.259,0.36l-0.2-0.58
		c0.399-0.26,0.979-0.43,1.589-0.43c1.479,0,1.84,1.009,1.84,1.979v1.809c0,0.419,0.02,0.83,0.079,1.159H213.076z M212.947,45.031
		c-0.96-0.02-2.049,0.15-2.049,1.089c0,0.57,0.379,0.84,0.829,0.84c0.63,0,1.029-0.4,1.169-0.81c0.03-0.09,0.051-0.19,0.051-0.28
		V45.031z"/>
	<path fill="#FFFFFF" d="M215.098,46.601c0.26,0.17,0.72,0.35,1.159,0.35c0.64,0,0.94-0.32,0.94-0.72c0-0.419-0.25-0.649-0.9-0.889
		c-0.869-0.31-1.279-0.79-1.279-1.369c0-0.78,0.63-1.419,1.67-1.419c0.489,0,0.919,0.14,1.188,0.3l-0.22,0.64
		c-0.189-0.12-0.539-0.28-0.989-0.28c-0.52,0-0.81,0.3-0.81,0.66c0,0.4,0.29,0.58,0.92,0.819c0.839,0.32,1.269,0.74,1.269,1.459
		c0,0.85-0.659,1.449-1.809,1.449c-0.529,0-1.02-0.13-1.359-0.33L215.098,46.601z"/>
	<path fill="#FFFFFF" d="M220.047,44.881h0.021c0.12-0.17,0.29-0.38,0.43-0.55l1.419-1.669h1.06l-1.869,1.989l2.129,2.849h-1.069
		l-1.669-2.319l-0.45,0.5V47.5h-0.869v-7.096h0.869V44.881z"/>
	<path fill="#FFFFFF" d="M227.806,41.003v0.58l-2.828,5.917h-0.909l2.818-5.747v-0.02h-3.179v-0.73H227.806z"/>
</g>
<g>
	<path fill="#FFFFFF" d="M36.26,23.344c0.419-0.07,0.969-0.13,1.669-0.13c0.859,0,1.489,0.2,1.889,0.56
		c0.37,0.32,0.59,0.81,0.59,1.409c0,0.61-0.18,1.089-0.52,1.439c-0.46,0.49-1.209,0.739-2.059,0.739c-0.26,0-0.5-0.01-0.7-0.06V30
		H36.26V23.344z M37.129,26.592c0.19,0.05,0.43,0.07,0.72,0.07c1.049,0,1.689-0.509,1.689-1.439c0-0.89-0.629-1.319-1.589-1.319
		c-0.38,0-0.67,0.03-0.82,0.07V26.592z"/>
	<path fill="#FFFFFF" d="M41.39,26.672c0-0.57-0.01-1.06-0.04-1.509h0.77l0.03,0.95h0.04c0.22-0.65,0.75-1.06,1.339-1.06
		c0.1,0,0.169,0.01,0.25,0.03v0.83c-0.09-0.02-0.18-0.03-0.3-0.03c-0.62,0-1.06,0.47-1.179,1.129c-0.02,0.12-0.04,0.26-0.04,0.41V30
		h-0.87V26.672z"/>
	<path fill="#FFFFFF" d="M48.938,27.542c0,1.789-1.24,2.568-2.409,2.568c-1.31,0-2.319-0.959-2.319-2.489
		c0-1.619,1.06-2.568,2.398-2.568C47.998,25.053,48.938,26.062,48.938,27.542z M45.1,27.591c0,1.06,0.609,1.859,1.469,1.859
		c0.84,0,1.469-0.79,1.469-1.879c0-0.819-0.41-1.859-1.449-1.859C45.549,25.712,45.1,26.672,45.1,27.591z"/>
	<path fill="#FFFFFF" d="M48.87,31.399c0.4-0.03,0.75-0.14,0.959-0.37c0.24-0.28,0.33-0.66,0.33-1.819v-4.048h0.88v4.388
		c0,0.939-0.15,1.549-0.58,1.989c-0.39,0.39-1.029,0.55-1.499,0.55L48.87,31.399z M51.139,23.803c0.01,0.29-0.2,0.54-0.549,0.54
		c-0.33,0-0.54-0.25-0.54-0.54c0-0.31,0.23-0.549,0.56-0.549C50.929,23.254,51.139,23.494,51.139,23.803z"/>
	<path fill="#FFFFFF" d="M52.969,27.741c0.02,1.189,0.78,1.679,1.659,1.679c0.63,0,1.009-0.11,1.339-0.25l0.15,0.63
		c-0.31,0.14-0.84,0.3-1.609,0.3c-1.489,0-2.378-0.979-2.378-2.439c0-1.459,0.859-2.608,2.269-2.608
		c1.579,0,1.999,1.389,1.999,2.279c0,0.18-0.02,0.32-0.03,0.41H52.969z M55.548,27.112c0.01-0.56-0.23-1.429-1.219-1.429
		c-0.89,0-1.279,0.819-1.349,1.429H55.548z"/>
	<path fill="#FFFFFF" d="M60.938,29.82c-0.23,0.12-0.74,0.28-1.389,0.28c-1.459,0-2.409-0.99-2.409-2.469
		c0-1.489,1.02-2.569,2.599-2.569c0.52,0,0.979,0.13,1.219,0.25l-0.2,0.68c-0.21-0.12-0.54-0.23-1.02-0.23
		c-1.109,0-1.709,0.82-1.709,1.829c0,1.12,0.719,1.809,1.679,1.809c0.5,0,0.83-0.13,1.08-0.24L60.938,29.82z"/>
	<path fill="#FFFFFF" d="M63.159,23.773v1.389h1.259v0.67h-1.259v2.608c0,0.6,0.17,0.939,0.66,0.939c0.23,0,0.4-0.03,0.51-0.06
		l0.04,0.66c-0.17,0.07-0.44,0.12-0.78,0.12c-0.41,0-0.74-0.13-0.949-0.37c-0.25-0.26-0.34-0.689-0.34-1.259v-2.638h-0.75v-0.67
		h0.75v-1.159L63.159,23.773z"/>
	<path fill="#FFFFFF" d="M65.339,28.991c0.25,0.16,0.83,0.41,1.439,0.41c1.129,0,1.479-0.72,1.469-1.259
		c-0.01-0.91-0.83-1.299-1.679-1.299h-0.49v-0.66h0.49c0.64,0,1.449-0.33,1.449-1.1c0-0.52-0.33-0.979-1.14-0.979
		c-0.52,0-1.02,0.23-1.299,0.43l-0.23-0.64c0.34-0.25,1-0.5,1.699-0.5c1.279,0,1.859,0.76,1.859,1.549
		c0,0.669-0.399,1.239-1.199,1.529v0.02c0.8,0.16,1.449,0.76,1.449,1.669c0,1.039-0.81,1.949-2.369,1.949
		c-0.729,0-1.369-0.23-1.689-0.439L65.339,28.991z"/>
	<path fill="#FFFFFF" d="M69.8,30.4l2.788-7.246h0.68L70.469,30.4H69.8z"/>
	<path fill="#FFFFFF" d="M73.879,28.94c0.39,0.24,0.959,0.44,1.559,0.44c0.89,0,1.409-0.47,1.409-1.149
		c0-0.629-0.36-0.989-1.269-1.339c-1.1-0.39-1.779-0.959-1.779-1.909c0-1.05,0.87-1.829,2.179-1.829c0.69,0,1.189,0.16,1.489,0.33
		l-0.24,0.71c-0.22-0.12-0.669-0.32-1.279-0.32c-0.919,0-1.269,0.549-1.269,1.009c0,0.63,0.41,0.939,1.339,1.299
		c1.14,0.44,1.719,0.989,1.719,1.979c0,1.039-0.77,1.939-2.359,1.939c-0.649,0-1.359-0.19-1.719-0.43L73.879,28.94z"/>
	<path fill="#FFFFFF" d="M82.947,28.681c0,0.5,0.01,0.939,0.04,1.319h-0.78l-0.05-0.79h-0.02c-0.23,0.39-0.74,0.899-1.599,0.899
		c-0.76,0-1.669-0.42-1.669-2.119v-2.829h0.879v2.679c0,0.919,0.28,1.539,1.08,1.539c0.589,0,1-0.41,1.159-0.8
		c0.05-0.13,0.08-0.29,0.08-0.45v-2.968h0.879V28.681z"/>
	<path fill="#FFFFFF" d="M85.388,23.803c0.01,0.3-0.21,0.54-0.56,0.54c-0.31,0-0.53-0.24-0.53-0.54c0-0.31,0.23-0.549,0.55-0.549
		C85.178,23.254,85.388,23.494,85.388,23.803z M84.409,30v-4.837h0.879V30H84.409z"/>
	<path fill="#FFFFFF" d="M87.808,23.773v1.389h1.259v0.67h-1.259v2.608c0,0.6,0.17,0.939,0.66,0.939c0.23,0,0.4-0.03,0.51-0.06
		l0.04,0.66c-0.17,0.07-0.44,0.12-0.78,0.12c-0.41,0-0.74-0.13-0.949-0.37c-0.25-0.26-0.34-0.689-0.34-1.259v-2.638h-0.75v-0.67
		h0.75v-1.159L87.808,23.773z"/>
	<path fill="#FFFFFF" d="M90.488,27.741c0.02,1.189,0.78,1.679,1.659,1.679c0.63,0,1.009-0.11,1.339-0.25l0.15,0.63
		c-0.31,0.14-0.84,0.3-1.609,0.3c-1.489,0-2.378-0.979-2.378-2.439c0-1.459,0.859-2.608,2.269-2.608
		c1.579,0,1.999,1.389,1.999,2.279c0,0.18-0.02,0.32-0.03,0.41H90.488z M93.067,27.112c0.01-0.56-0.23-1.429-1.219-1.429
		c-0.89,0-1.279,0.819-1.349,1.429H93.067z"/>
	<path fill="#FFFFFF" d="M98.607,24.243h-2.479l-0.25,1.669c0.15-0.02,0.29-0.04,0.53-0.04c0.5,0,1,0.11,1.399,0.35
		c0.51,0.29,0.93,0.85,0.93,1.669c0,1.27-1.009,2.219-2.418,2.219c-0.71,0-1.31-0.2-1.619-0.4l0.22-0.669
		c0.27,0.16,0.8,0.36,1.389,0.36c0.83,0,1.539-0.54,1.539-1.409c-0.01-0.84-0.569-1.439-1.869-1.439c-0.37,0-0.66,0.04-0.899,0.07
		l0.419-3.119h3.108V24.243z"/>
</g>
<g>
</g>
<g>
</g>
<g>
</g>
<g>
</g>
<g>
</g>
<g>
</g>
<g>
</g>
<g>
</g>
<g>
</g>
<g>
</g>
<g>
</g>
<g>
</g>
<g>
</g>
<g>
</g>
<g>
</g>
</svg>
